<svg width="179" height="67" viewBox="0 0 179 67" fill="none" xmlns="http://www.w3.org/2000/svg">
<rect width="179" height="67" rx="15" fill="white"/>
<path d="M13.8789 28V20H16.8086C17.3763 20 17.8464 20.0937 18.2188 20.2812C18.5911 20.4661 18.8698 20.7174 19.0547 21.0352C19.2396 21.3503 19.332 21.7057 19.332 22.1016C19.332 22.4349 19.2708 22.7161 19.1484 22.9453C19.026 23.1719 18.862 23.3542 18.6563 23.4922C18.4531 23.6276 18.2292 23.7266 17.9844 23.7891V23.8672C18.25 23.8802 18.5091 23.9661 18.7617 24.125C19.0169 24.2812 19.2279 24.5039 19.3945 24.793C19.5612 25.082 19.6445 25.4336 19.6445 25.8477C19.6445 26.2565 19.5482 26.6237 19.3555 26.9492C19.1654 27.2721 18.8711 27.5286 18.4727 27.7187C18.0742 27.9062 17.5651 28 16.9453 28H13.8789ZM15.0859 26.9648H16.8281C17.4063 26.9648 17.8203 26.8529 18.0703 26.6289C18.3203 26.4049 18.4453 26.125 18.4453 25.7891C18.4453 25.5365 18.3815 25.3047 18.2539 25.0937C18.1263 24.8828 17.944 24.7148 17.707 24.5898C17.4727 24.4648 17.194 24.4023 16.8711 24.4023H15.0859V26.9648ZM15.0859 23.4609H16.7031C16.974 23.4609 17.2174 23.4089 17.4336 23.3047C17.6523 23.2005 17.8255 23.0547 17.9531 22.8672C18.0833 22.6771 18.1484 22.4531 18.1484 22.1953C18.1484 21.8646 18.0326 21.5872 17.8008 21.3633C17.569 21.1393 17.2135 21.0273 16.7344 21.0273H15.0859V23.4609ZM23.5684 28.1211C22.9772 28.1211 22.4681 27.9948 22.041 27.7422C21.6165 27.487 21.2884 27.1289 21.0566 26.668C20.8275 26.2044 20.7129 25.6615 20.7129 25.0391C20.7129 24.4245 20.8275 23.8828 21.0566 23.4141C21.2884 22.9453 21.6113 22.5794 22.0254 22.3164C22.4421 22.0534 22.929 21.9219 23.4863 21.9219C23.8249 21.9219 24.153 21.9779 24.4707 22.0898C24.7884 22.2018 25.0736 22.3776 25.3262 22.6172C25.5788 22.8568 25.778 23.168 25.9238 23.5508C26.0697 23.931 26.1426 24.3932 26.1426 24.9375V25.3516H21.373V24.4766H24.998C24.998 24.1693 24.9355 23.8971 24.8105 23.6602C24.6855 23.4206 24.5098 23.2318 24.2832 23.0937C24.0592 22.9557 23.7962 22.8867 23.4941 22.8867C23.166 22.8867 22.8796 22.9674 22.6348 23.1289C22.3926 23.2878 22.2051 23.4961 22.0723 23.7539C21.9421 24.0091 21.877 24.2865 21.877 24.5859V25.2695C21.877 25.6706 21.9473 26.0117 22.0879 26.293C22.2311 26.5742 22.4303 26.7891 22.6855 26.9375C22.9408 27.0833 23.2389 27.1562 23.5801 27.1562C23.8014 27.1562 24.0033 27.125 24.1855 27.0625C24.3678 26.9974 24.5254 26.901 24.6582 26.7734C24.791 26.6458 24.8926 26.4883 24.9629 26.3008L26.0684 26.5C25.9798 26.8255 25.821 27.1107 25.5918 27.3555C25.3652 27.5977 25.0801 27.7865 24.7363 27.9219C24.3952 28.0547 24.0059 28.1211 23.5684 28.1211ZM28.6064 20V28H27.4385V20H28.6064ZM31.9238 28.1328C31.5436 28.1328 31.1999 28.0625 30.8926 27.9219C30.5853 27.7786 30.3418 27.5716 30.1621 27.3008C29.985 27.0299 29.8965 26.6979 29.8965 26.3047C29.8965 25.9661 29.9616 25.6875 30.0918 25.4687C30.222 25.25 30.3978 25.0768 30.6191 24.9492C30.8405 24.8216 31.0879 24.7253 31.3613 24.6602C31.6348 24.5951 31.9134 24.5456 32.1973 24.5117C32.5566 24.4701 32.8483 24.4362 33.0723 24.4102C33.2962 24.3815 33.459 24.3359 33.5605 24.2734C33.6621 24.2109 33.7129 24.1094 33.7129 23.9687V23.9414C33.7129 23.6003 33.6165 23.3359 33.4238 23.1484C33.2337 22.9609 32.9499 22.8672 32.5723 22.8672C32.179 22.8672 31.8691 22.9544 31.6426 23.1289C31.4186 23.3008 31.2637 23.4922 31.1777 23.7031L30.0801 23.4531C30.2103 23.0885 30.4004 22.7943 30.6504 22.5703C30.903 22.3437 31.1934 22.1797 31.5215 22.0781C31.8496 21.974 32.1947 21.9219 32.5566 21.9219C32.7962 21.9219 33.0501 21.9505 33.3184 22.0078C33.5892 22.0625 33.8418 22.1641 34.0762 22.3125C34.3132 22.4609 34.5072 22.6732 34.6582 22.9492C34.8092 23.2227 34.8848 23.5781 34.8848 24.0156V28H33.7441V27.1797H33.6973C33.6217 27.3307 33.5085 27.4792 33.3574 27.625C33.2064 27.7708 33.0124 27.8919 32.7754 27.9883C32.5384 28.0846 32.2546 28.1328 31.9238 28.1328ZM32.1777 27.1953C32.5007 27.1953 32.7767 27.1315 33.0059 27.0039C33.2376 26.8763 33.4134 26.7096 33.5332 26.5039C33.6556 26.2956 33.7168 26.0729 33.7168 25.8359V25.0625C33.6751 25.1042 33.5944 25.1432 33.4746 25.1797C33.3574 25.2135 33.2233 25.2435 33.0723 25.2695C32.9212 25.293 32.7741 25.3151 32.6309 25.3359C32.4876 25.3542 32.3678 25.3698 32.2715 25.3828C32.0449 25.4115 31.8379 25.4596 31.6504 25.5273C31.4655 25.5951 31.3171 25.6927 31.2051 25.8203C31.0957 25.9453 31.041 26.112 31.041 26.3203C31.041 26.6094 31.1478 26.8281 31.3613 26.9766C31.5749 27.1224 31.847 27.1953 32.1777 27.1953ZM36.4404 22H37.6084V28.3906C37.6084 28.7917 37.5355 29.1302 37.3896 29.4062C37.2464 29.6823 37.0329 29.8919 36.749 30.0352C36.4678 30.1784 36.1201 30.25 35.7061 30.25C35.6644 30.25 35.6253 30.25 35.5889 30.25C35.5498 30.25 35.5094 30.2487 35.4678 30.2461V29.2422C35.5042 29.2422 35.5368 29.2422 35.5654 29.2422C35.5915 29.2422 35.6214 29.2422 35.6553 29.2422C35.9313 29.2422 36.1305 29.168 36.2529 29.0195C36.3779 28.8737 36.4404 28.6615 36.4404 28.3828V22ZM37.0186 21.0742C36.8154 21.0742 36.641 21.0065 36.4951 20.8711C36.3519 20.7331 36.2803 20.569 36.2803 20.3789C36.2803 20.1862 36.3519 20.0221 36.4951 19.8867C36.641 19.7487 36.8154 19.6797 37.0186 19.6797C37.2217 19.6797 37.3949 19.7487 37.5381 19.8867C37.6839 20.0221 37.7568 20.1862 37.7568 20.3789C37.7568 20.569 37.6839 20.7331 37.5381 20.8711C37.3949 21.0065 37.2217 21.0742 37.0186 21.0742ZM40.9258 28.1328C40.5456 28.1328 40.2018 28.0625 39.8945 27.9219C39.5872 27.7786 39.3438 27.5716 39.1641 27.3008C38.987 27.0299 38.8984 26.6979 38.8984 26.3047C38.8984 25.9661 38.9635 25.6875 39.0938 25.4687C39.224 25.25 39.3997 25.0768 39.6211 24.9492C39.8424 24.8216 40.0898 24.7253 40.3633 24.6602C40.6367 24.5951 40.9154 24.5456 41.1992 24.5117C41.5586 24.4701 41.8503 24.4362 42.0742 24.4102C42.2982 24.3815 42.4609 24.3359 42.5625 24.2734C42.6641 24.2109 42.7148 24.1094 42.7148 23.9687V23.9414C42.7148 23.6003 42.6185 23.3359 42.4258 23.1484C42.2357 22.9609 41.9518 22.8672 41.5742 22.8672C41.181 22.8672 40.8711 22.9544 40.6445 23.1289C40.4206 23.3008 40.2656 23.4922 40.1797 23.7031L39.082 23.4531C39.2122 23.0885 39.4023 22.7943 39.6523 22.5703C39.9049 22.3437 40.1953 22.1797 40.5234 22.0781C40.8516 21.974 41.1966 21.9219 41.5586 21.9219C41.7982 21.9219 42.0521 21.9505 42.3203 22.0078C42.5911 22.0625 42.8438 22.1641 43.0781 22.3125C43.3151 22.4609 43.5091 22.6732 43.6602 22.9492C43.8112 23.2227 43.8867 23.5781 43.8867 24.0156V28H42.7461V27.1797H42.6992C42.6237 27.3307 42.5104 27.4792 42.3594 27.625C42.2083 27.7708 42.0143 27.8919 41.7773 27.9883C41.5404 28.0846 41.2565 28.1328 40.9258 28.1328ZM41.1797 27.1953C41.5026 27.1953 41.7786 27.1315 42.0078 27.0039C42.2396 26.8763 42.4154 26.7096 42.5352 26.5039C42.6576 26.2956 42.7188 26.0729 42.7188 25.8359V25.0625C42.6771 25.1042 42.5964 25.1432 42.4766 25.1797C42.3594 25.2135 42.2253 25.2435 42.0742 25.2695C41.9232 25.293 41.776 25.3151 41.6328 25.3359C41.4896 25.3542 41.3698 25.3698 41.2734 25.3828C41.0469 25.4115 40.8398 25.4596 40.6523 25.5273C40.4674 25.5951 40.319 25.6927 40.207 25.8203C40.0977 25.9453 40.043 26.112 40.043 26.3203C40.043 26.6094 40.1497 26.8281 40.3633 26.9766C40.5768 27.1224 40.849 27.1953 41.1797 27.1953ZM45.4424 28V22H46.5713V22.9531H46.6338C46.7432 22.6302 46.9359 22.3763 47.2119 22.1914C47.4906 22.0039 47.8057 21.9102 48.1572 21.9102C48.2301 21.9102 48.3161 21.9128 48.415 21.918C48.5166 21.9232 48.596 21.9297 48.6533 21.9375V23.0547C48.6064 23.0417 48.5231 23.0273 48.4033 23.0117C48.2835 22.9935 48.1637 22.9844 48.0439 22.9844C47.7679 22.9844 47.5218 23.043 47.3057 23.1602C47.0921 23.2747 46.9229 23.4349 46.7979 23.6406C46.6729 23.8437 46.6104 24.0755 46.6104 24.3359V28H45.4424ZM52.6689 28V20H53.876V26.9609H57.501V28H52.6689ZM61.3701 28.1211C60.779 28.1211 60.2699 27.9948 59.8428 27.7422C59.4183 27.487 59.0902 27.1289 58.8584 26.668C58.6292 26.2044 58.5146 25.6615 58.5146 25.0391C58.5146 24.4245 58.6292 23.8828 58.8584 23.4141C59.0902 22.9453 59.4131 22.5794 59.8271 22.3164C60.2438 22.0534 60.7308 21.9219 61.2881 21.9219C61.6266 21.9219 61.9548 21.9779 62.2725 22.0898C62.5902 22.2018 62.8753 22.3776 63.1279 22.6172C63.3805 22.8568 63.5798 23.168 63.7256 23.5508C63.8714 23.931 63.9443 24.3932 63.9443 24.9375V25.3516H59.1748V24.4766H62.7998C62.7998 24.1693 62.7373 23.8971 62.6123 23.6602C62.4873 23.4206 62.3115 23.2318 62.085 23.0937C61.861 22.9557 61.598 22.8867 61.2959 22.8867C60.9678 22.8867 60.6813 22.9674 60.4365 23.1289C60.1943 23.2878 60.0068 23.4961 59.874 23.7539C59.7438 24.0091 59.6787 24.2865 59.6787 24.5859V25.2695C59.6787 25.6706 59.749 26.0117 59.8896 26.293C60.0329 26.5742 60.2321 26.7891 60.4873 26.9375C60.7425 27.0833 61.0407 27.1562 61.3818 27.1562C61.6032 27.1562 61.805 27.125 61.9873 27.0625C62.1696 26.9974 62.3271 26.901 62.46 26.7734C62.5928 26.6458 62.6943 26.4883 62.7646 26.3008L63.8701 26.5C63.7816 26.8255 63.6227 27.1107 63.3936 27.3555C63.167 27.5977 62.8818 27.7865 62.5381 27.9219C62.1969 28.0547 61.8076 28.1211 61.3701 28.1211ZM65.334 28V20H66.502V22.9727H66.5723C66.64 22.8477 66.7376 22.7031 66.8652 22.5391C66.9928 22.375 67.1699 22.2318 67.3965 22.1094C67.623 21.9844 67.9225 21.9219 68.2949 21.9219C68.7793 21.9219 69.2116 22.0443 69.5918 22.2891C69.972 22.5339 70.2702 22.8867 70.4863 23.3477C70.7051 23.8086 70.8145 24.3633 70.8145 25.0117C70.8145 25.6602 70.7064 26.2161 70.4902 26.6797C70.2741 27.1406 69.9772 27.4961 69.5996 27.7461C69.222 27.9935 68.791 28.1172 68.3066 28.1172C67.9421 28.1172 67.6439 28.056 67.4121 27.9336C67.1829 27.8112 67.0033 27.668 66.873 27.5039C66.7428 27.3398 66.6426 27.194 66.5723 27.0664H66.4746V28H65.334ZM66.4785 25C66.4785 25.4219 66.5397 25.7917 66.6621 26.1094C66.7845 26.4271 66.9616 26.6758 67.1934 26.8555C67.4251 27.0326 67.709 27.1211 68.0449 27.1211C68.3939 27.1211 68.6855 27.0286 68.9199 26.8437C69.1543 26.6562 69.3314 26.4023 69.4512 26.082C69.5736 25.7617 69.6348 25.401 69.6348 25C69.6348 24.6042 69.5749 24.2487 69.4551 23.9336C69.3379 23.6185 69.1608 23.3698 68.9238 23.1875C68.6895 23.0052 68.3965 22.9141 68.0449 22.9141C67.7064 22.9141 67.4199 23.0013 67.1855 23.1758C66.9538 23.3503 66.778 23.5937 66.6582 23.9062C66.5384 24.2187 66.4785 24.5833 66.4785 25ZM72.126 28V22H73.2939V28H72.126ZM72.7158 21.0742C72.5127 21.0742 72.3382 21.0065 72.1924 20.8711C72.0492 20.7331 71.9775 20.569 71.9775 20.3789C71.9775 20.1862 72.0492 20.0221 72.1924 19.8867C72.3382 19.7487 72.5127 19.6797 72.7158 19.6797C72.9189 19.6797 73.0921 19.7487 73.2354 19.8867C73.3812 20.0221 73.4541 20.1862 73.4541 20.3789C73.4541 20.569 73.3812 20.7331 73.2354 20.8711C73.0921 21.0065 72.9189 21.0742 72.7158 21.0742ZM76.0332 24.4375V28H74.8652V20H76.0176V22.9766H76.0918C76.2324 22.6536 76.4473 22.3971 76.7363 22.207C77.0254 22.0169 77.403 21.9219 77.8691 21.9219C78.2806 21.9219 78.64 22.0065 78.9473 22.1758C79.2572 22.3451 79.4967 22.5977 79.666 22.9336C79.8379 23.2669 79.9238 23.6836 79.9238 24.1836V28H78.7559V24.3242C78.7559 23.8841 78.6426 23.543 78.416 23.3008C78.1895 23.056 77.8743 22.9336 77.4707 22.9336C77.1947 22.9336 76.9473 22.9922 76.7285 23.1094C76.5124 23.2266 76.3418 23.3984 76.2168 23.625C76.0944 23.849 76.0332 24.1198 76.0332 24.4375ZM84.0928 21.0391V20H90.2842V21.0391H87.7881V28H86.585V21.0391H84.0928ZM93.2744 28.1211C92.6833 28.1211 92.1742 27.9948 91.7471 27.7422C91.3226 27.487 90.9945 27.1289 90.7627 26.668C90.5335 26.2044 90.4189 25.6615 90.4189 25.0391C90.4189 24.4245 90.5335 23.8828 90.7627 23.4141C90.9945 22.9453 91.3174 22.5794 91.7314 22.3164C92.1481 22.0534 92.6351 21.9219 93.1924 21.9219C93.5309 21.9219 93.859 21.9779 94.1768 22.0898C94.4945 22.2018 94.7796 22.3776 95.0322 22.6172C95.2848 22.8568 95.484 23.168 95.6299 23.5508C95.7757 23.931 95.8486 24.3932 95.8486 24.9375V25.3516H91.0791V24.4766H94.7041C94.7041 24.1693 94.6416 23.8971 94.5166 23.6602C94.3916 23.4206 94.2158 23.2318 93.9893 23.0937C93.7653 22.9557 93.5023 22.8867 93.2002 22.8867C92.8721 22.8867 92.5856 22.9674 92.3408 23.1289C92.0986 23.2878 91.9111 23.4961 91.7783 23.7539C91.6481 24.0091 91.583 24.2865 91.583 24.5859V25.2695C91.583 25.6706 91.6533 26.0117 91.7939 26.293C91.9372 26.5742 92.1364 26.7891 92.3916 26.9375C92.6468 27.0833 92.945 27.1562 93.2861 27.1562C93.5075 27.1562 93.7093 27.125 93.8916 27.0625C94.0739 26.9974 94.2314 26.901 94.3643 26.7734C94.4971 26.6458 94.5986 26.4883 94.6689 26.3008L95.7744 26.5C95.6859 26.8255 95.527 27.1107 95.2979 27.3555C95.0713 27.5977 94.7861 27.7865 94.4424 27.9219C94.1012 28.0547 93.7119 28.1211 93.2744 28.1211ZM97.1445 28V22H98.2734V22.9531H98.3359C98.4453 22.6302 98.638 22.3763 98.9141 22.1914C99.1927 22.0039 99.5078 21.9102 99.8594 21.9102C99.9323 21.9102 100.018 21.9128 100.117 21.918C100.219 21.9232 100.298 21.9297 100.355 21.9375V23.0547C100.309 23.0417 100.225 23.0273 100.105 23.0117C99.9857 22.9935 99.8659 22.9844 99.7461 22.9844C99.4701 22.9844 99.224 23.043 99.0078 23.1602C98.7943 23.2747 98.625 23.4349 98.5 23.6406C98.375 23.8437 98.3125 24.0755 98.3125 24.3359V28H97.1445ZM103.059 28.1328C102.678 28.1328 102.335 28.0625 102.027 27.9219C101.72 27.7786 101.477 27.5716 101.297 27.3008C101.12 27.0299 101.031 26.6979 101.031 26.3047C101.031 25.9661 101.096 25.6875 101.227 25.4687C101.357 25.25 101.533 25.0768 101.754 24.9492C101.975 24.8216 102.223 24.7253 102.496 24.6602C102.77 24.5951 103.048 24.5456 103.332 24.5117C103.691 24.4701 103.983 24.4362 104.207 24.4102C104.431 24.3815 104.594 24.3359 104.695 24.2734C104.797 24.2109 104.848 24.1094 104.848 23.9687V23.9414C104.848 23.6003 104.751 23.3359 104.559 23.1484C104.368 22.9609 104.085 22.8672 103.707 22.8672C103.314 22.8672 103.004 22.9544 102.777 23.1289C102.553 23.3008 102.398 23.4922 102.313 23.7031L101.215 23.4531C101.345 23.0885 101.535 22.7943 101.785 22.5703C102.038 22.3437 102.328 22.1797 102.656 22.0781C102.984 21.974 103.329 21.9219 103.691 21.9219C103.931 21.9219 104.185 21.9505 104.453 22.0078C104.724 22.0625 104.977 22.1641 105.211 22.3125C105.448 22.4609 105.642 22.6732 105.793 22.9492C105.944 23.2227 106.02 23.5781 106.02 24.0156V28H104.879V27.1797H104.832C104.757 27.3307 104.643 27.4792 104.492 27.625C104.341 27.7708 104.147 27.8919 103.91 27.9883C103.673 28.0846 103.389 28.1328 103.059 28.1328ZM103.313 27.1953C103.635 27.1953 103.911 27.1315 104.141 27.0039C104.372 26.8763 104.548 26.7096 104.668 26.5039C104.79 26.2956 104.852 26.0729 104.852 25.8359V25.0625C104.81 25.1042 104.729 25.1432 104.609 25.1797C104.492 25.2135 104.358 25.2435 104.207 25.2695C104.056 25.293 103.909 25.3151 103.766 25.3359C103.622 25.3542 103.503 25.3698 103.406 25.3828C103.18 25.4115 102.973 25.4596 102.785 25.5273C102.6 25.5951 102.452 25.6927 102.34 25.8203C102.23 25.9453 102.176 26.112 102.176 26.3203C102.176 26.6094 102.283 26.8281 102.496 26.9766C102.71 27.1224 102.982 27.1953 103.313 27.1953ZM107.575 28V22H108.704V22.9531H108.767C108.876 22.6302 109.069 22.3763 109.345 22.1914C109.623 22.0039 109.938 21.9102 110.29 21.9102C110.363 21.9102 110.449 21.9128 110.548 21.918C110.649 21.9232 110.729 21.9297 110.786 21.9375V23.0547C110.739 23.0417 110.656 23.0273 110.536 23.0117C110.416 22.9935 110.297 22.9844 110.177 22.9844C109.901 22.9844 109.655 23.043 109.438 23.1602C109.225 23.2747 109.056 23.4349 108.931 23.6406C108.806 23.8437 108.743 24.0755 108.743 24.3359V28H107.575ZM113.489 28.1328C113.109 28.1328 112.765 28.0625 112.458 27.9219C112.151 27.7786 111.907 27.5716 111.728 27.3008C111.55 27.0299 111.462 26.6979 111.462 26.3047C111.462 25.9661 111.527 25.6875 111.657 25.4687C111.787 25.25 111.963 25.0768 112.185 24.9492C112.406 24.8216 112.653 24.7253 112.927 24.6602C113.2 24.5951 113.479 24.5456 113.763 24.5117C114.122 24.4701 114.414 24.4362 114.638 24.4102C114.862 24.3815 115.024 24.3359 115.126 24.2734C115.228 24.2109 115.278 24.1094 115.278 23.9687V23.9414C115.278 23.6003 115.182 23.3359 114.989 23.1484C114.799 22.9609 114.515 22.8672 114.138 22.8672C113.744 22.8672 113.435 22.9544 113.208 23.1289C112.984 23.3008 112.829 23.4922 112.743 23.7031L111.646 23.4531C111.776 23.0885 111.966 22.7943 112.216 22.5703C112.468 22.3437 112.759 22.1797 113.087 22.0781C113.415 21.974 113.76 21.9219 114.122 21.9219C114.362 21.9219 114.616 21.9505 114.884 22.0078C115.155 22.0625 115.407 22.1641 115.642 22.3125C115.879 22.4609 116.073 22.6732 116.224 22.9492C116.375 23.2227 116.45 23.5781 116.45 24.0156V28H115.31V27.1797H115.263C115.187 27.3307 115.074 27.4792 114.923 27.625C114.772 27.7708 114.578 27.8919 114.341 27.9883C114.104 28.0846 113.82 28.1328 113.489 28.1328ZM113.743 27.1953C114.066 27.1953 114.342 27.1315 114.571 27.0039C114.803 26.8763 114.979 26.7096 115.099 26.5039C115.221 26.2956 115.282 26.0729 115.282 25.8359V25.0625C115.241 25.1042 115.16 25.1432 115.04 25.1797C114.923 25.2135 114.789 25.2435 114.638 25.2695C114.487 25.293 114.34 25.3151 114.196 25.3359C114.053 25.3542 113.933 25.3698 113.837 25.3828C113.61 25.4115 113.403 25.4596 113.216 25.5273C113.031 25.5951 112.882 25.6927 112.771 25.8203C112.661 25.9453 112.606 26.112 112.606 26.3203C112.606 26.6094 112.713 26.8281 112.927 26.9766C113.14 27.1224 113.412 27.1953 113.743 27.1953ZM119.174 24.4375V28H118.006V20H119.158V22.9766H119.232C119.373 22.6536 119.588 22.3971 119.877 22.207C120.166 22.0169 120.544 21.9219 121.01 21.9219C121.421 21.9219 121.781 22.0065 122.088 22.1758C122.398 22.3451 122.637 22.5977 122.807 22.9336C122.979 23.2669 123.064 23.6836 123.064 24.1836V28H121.896V24.3242C121.896 23.8841 121.783 23.543 121.557 23.3008C121.33 23.056 121.015 22.9336 120.611 22.9336C120.335 22.9336 120.088 22.9922 119.869 23.1094C119.653 23.2266 119.482 23.3984 119.357 23.625C119.235 23.849 119.174 24.1198 119.174 24.4375Z" fill="#A5A5B0"/>
<path d="M13.9325 38.5455H16.0284L18.8352 45.3963H18.946L21.7528 38.5455H23.8487V48H22.2053V41.5046H22.1175L19.5046 47.9723H18.2766L15.6637 41.4908H15.576V48H13.9325V38.5455ZM28.7791 48.1385C28.0682 48.1385 27.4542 47.9908 26.9371 47.6953C26.4232 47.3968 26.0277 46.9751 25.7507 46.4304C25.4737 45.8826 25.3352 45.2378 25.3352 44.4961C25.3352 43.7667 25.4737 43.1265 25.7507 42.5756C26.0308 42.0217 26.4216 41.5908 26.9233 41.283C27.425 40.9722 28.0143 40.8168 28.6914 40.8168C29.1284 40.8168 29.5408 40.8875 29.9286 41.0291C30.3195 41.1676 30.6642 41.383 30.9627 41.6754C31.2643 41.9678 31.5013 42.3402 31.6737 42.7926C31.846 43.242 31.9322 43.7775 31.9322 44.3991V44.9116H26.12V43.7852H30.3303C30.3272 43.4651 30.2579 43.1804 30.1225 42.9311C29.9871 42.6787 29.7978 42.4802 29.5547 42.3356C29.3146 42.1909 29.0346 42.1186 28.7145 42.1186C28.3729 42.1186 28.0728 42.2017 27.8143 42.3679C27.5558 42.531 27.3542 42.7464 27.2095 43.0142C27.0679 43.2789 26.9956 43.5697 26.9925 43.8867V44.87C26.9925 45.2824 27.0679 45.6364 27.2188 45.9318C27.3696 46.2242 27.5804 46.4489 27.8512 46.6058C28.122 46.7597 28.439 46.8366 28.8022 46.8366C29.0453 46.8366 29.2654 46.8028 29.4624 46.7351C29.6593 46.6643 29.8301 46.5612 29.9748 46.4258C30.1194 46.2904 30.2287 46.1226 30.3026 45.9226L31.8629 46.098C31.7644 46.5104 31.5767 46.8705 31.2997 47.1783C31.0258 47.483 30.675 47.7199 30.2472 47.8892C29.8194 48.0554 29.33 48.1385 28.7791 48.1385ZM36.8868 40.9091V42.2017H32.8105V40.9091H36.8868ZM33.8169 39.2102H35.488V45.8672C35.488 46.0919 35.5219 46.2642 35.5896 46.3842C35.6604 46.5012 35.7527 46.5812 35.8666 46.6243C35.9804 46.6674 36.1066 46.6889 36.2451 46.6889C36.3498 46.6889 36.4452 46.6812 36.5313 46.6658C36.6206 46.6504 36.6883 46.6366 36.7345 46.6243L37.0161 47.9308C36.9268 47.9615 36.7991 47.9954 36.6329 48.0323C36.4698 48.0692 36.2697 48.0908 36.0328 48.0969C35.6142 48.1093 35.2372 48.0462 34.9017 47.9077C34.5663 47.7661 34.3 47.5476 34.1031 47.2521C33.9092 46.9567 33.8138 46.5874 33.8169 46.1442V39.2102ZM41.3013 48.1385C40.6088 48.1385 40.0087 47.9862 39.5009 47.6815C38.9931 47.3768 38.5991 46.9505 38.3191 46.4027C38.0421 45.8549 37.9036 45.2147 37.9036 44.4822C37.9036 43.7498 38.0421 43.1081 38.3191 42.5572C38.5991 42.0063 38.9931 41.5785 39.5009 41.2738C40.0087 40.9691 40.6088 40.8168 41.3013 40.8168C41.9938 40.8168 42.5939 40.9691 43.1017 41.2738C43.6096 41.5785 44.002 42.0063 44.2789 42.5572C44.559 43.1081 44.699 43.7498 44.699 44.4822C44.699 45.2147 44.559 45.8549 44.2789 46.4027C44.002 46.9505 43.6096 47.3768 43.1017 47.6815C42.5939 47.9862 41.9938 48.1385 41.3013 48.1385ZM41.3105 46.7997C41.686 46.7997 41.9999 46.6966 42.2523 46.4904C42.5047 46.2811 42.6924 46.0011 42.8155 45.6502C42.9417 45.2994 43.0048 44.9085 43.0048 44.4776C43.0048 44.0437 42.9417 43.6513 42.8155 43.3004C42.6924 42.9465 42.5047 42.6649 42.2523 42.4556C41.9999 42.2463 41.686 42.1417 41.3105 42.1417C40.9258 42.1417 40.6058 42.2463 40.3503 42.4556C40.098 42.6649 39.9087 42.9465 39.7825 43.3004C39.6594 43.6513 39.5978 44.0437 39.5978 44.4776C39.5978 44.9085 39.6594 45.2994 39.7825 45.6502C39.9087 46.0011 40.098 46.2811 40.3503 46.4904C40.6058 46.6966 40.9258 46.7997 41.3105 46.7997ZM48.7488 48.1246C48.1918 48.1246 47.6932 47.9815 47.2531 47.6953C46.813 47.4091 46.4652 46.9936 46.2098 46.4489C45.9543 45.9041 45.8266 45.2424 45.8266 44.4638C45.8266 43.6759 45.9559 43.0111 46.2144 42.4695C46.476 41.9247 46.8284 41.5138 47.2716 41.2369C47.7148 40.9568 48.2087 40.8168 48.7535 40.8168C49.1689 40.8168 49.5106 40.8875 49.7783 41.0291C50.0461 41.1676 50.2584 41.3353 50.4154 41.5323C50.5724 41.7262 50.6939 41.9093 50.7801 42.0817H50.8493V38.5455H52.5251V48H50.8817V46.8828H50.7801C50.6939 47.0552 50.5693 47.2383 50.4062 47.4322C50.243 47.623 50.0276 47.7861 49.7599 47.9215C49.4921 48.0569 49.1551 48.1246 48.7488 48.1246ZM49.2151 46.7536C49.569 46.7536 49.8706 46.6581 50.1199 46.4673C50.3692 46.2734 50.5585 46.0041 50.6878 45.6594C50.817 45.3147 50.8817 44.9131 50.8817 44.4545C50.8817 43.996 50.817 43.5974 50.6878 43.2589C50.5616 42.9203 50.3738 42.6572 50.1246 42.4695C49.8783 42.2817 49.5752 42.1879 49.2151 42.1879C48.8427 42.1879 48.5319 42.2848 48.2826 42.4787C48.0333 42.6726 47.8456 42.9403 47.7194 43.282C47.5932 43.6236 47.5301 44.0144 47.5301 44.4545C47.5301 44.8977 47.5932 45.2932 47.7194 45.641C47.8486 45.9857 48.0379 46.258 48.2872 46.4581C48.5396 46.6551 48.8489 46.7536 49.2151 46.7536ZM57.4451 48.1385C56.7342 48.1385 56.1202 47.9908 55.6032 47.6953C55.0892 47.3968 54.6937 46.9751 54.4167 46.4304C54.1397 45.8826 54.0012 45.2378 54.0012 44.4961C54.0012 43.7667 54.1397 43.1265 54.4167 42.5756C54.6968 42.0217 55.0877 41.5908 55.5893 41.283C56.091 40.9722 56.6803 40.8168 57.3574 40.8168C57.7944 40.8168 58.2069 40.8875 58.5946 41.0291C58.9855 41.1676 59.3302 41.383 59.6287 41.6754C59.9303 41.9678 60.1673 42.3402 60.3397 42.7926C60.512 43.242 60.5982 43.7775 60.5982 44.3991V44.9116H54.786V43.7852H58.9963C58.9932 43.4651 58.9239 43.1804 58.7885 42.9311C58.6531 42.6787 58.4638 42.4802 58.2207 42.3356C57.9806 42.1909 57.7006 42.1186 57.3805 42.1186C57.0389 42.1186 56.7388 42.2017 56.4803 42.3679C56.2218 42.531 56.0202 42.7464 55.8755 43.0142C55.734 43.2789 55.6616 43.5697 55.6586 43.8867V44.87C55.6586 45.2824 55.734 45.6364 55.8848 45.9318C56.0356 46.2242 56.2464 46.4489 56.5172 46.6058C56.7881 46.7597 57.1051 46.8366 57.4682 46.8366C57.7114 46.8366 57.9314 46.8028 58.1284 46.7351C58.3253 46.6643 58.4962 46.5612 58.6408 46.4258C58.7855 46.2904 58.8947 46.1226 58.9686 45.9226L60.5289 46.098C60.4305 46.5104 60.2427 46.8705 59.9657 47.1783C59.6918 47.483 59.341 47.7199 58.9132 47.8892C58.4854 48.0554 57.996 48.1385 57.4451 48.1385ZM64.895 39.9812V38.5455H72.4383V39.9812H69.5161V48H67.8172V39.9812H64.895ZM75.9295 48.1385C75.2186 48.1385 74.6046 47.9908 74.0875 47.6953C73.5736 47.3968 73.1781 46.9751 72.9011 46.4304C72.6241 45.8826 72.4856 45.2378 72.4856 44.4961C72.4856 43.7667 72.6241 43.1265 72.9011 42.5756C73.1812 42.0217 73.572 41.5908 74.0737 41.283C74.5753 40.9722 75.1647 40.8168 75.8418 40.8168C76.2788 40.8168 76.6912 40.8875 77.079 41.0291C77.4699 41.1676 77.8146 41.383 78.1131 41.6754C78.4147 41.9678 78.6517 42.3402 78.824 42.7926C78.9964 43.242 79.0826 43.7775 79.0826 44.3991V44.9116H73.2704V43.7852H77.4806C77.4776 43.4651 77.4083 43.1804 77.2729 42.9311C77.1375 42.6787 76.9482 42.4802 76.7051 42.3356C76.465 42.1909 76.185 42.1186 75.8649 42.1186C75.5233 42.1186 75.2232 42.2017 74.9647 42.3679C74.7061 42.531 74.5046 42.7464 74.3599 43.0142C74.2183 43.2789 74.146 43.5697 74.1429 43.8867V44.87C74.1429 45.2824 74.2183 45.6364 74.3691 45.9318C74.5199 46.2242 74.7308 46.4489 75.0016 46.6058C75.2724 46.7597 75.5894 46.8366 75.9526 46.8366C76.1957 46.8366 76.4158 46.8028 76.6127 46.7351C76.8097 46.6643 76.9805 46.5612 77.1252 46.4258C77.2698 46.2904 77.3791 46.1226 77.4529 45.9226L79.0133 46.098C78.9148 46.5104 78.7271 46.8705 78.4501 47.1783C78.1762 47.483 77.8253 47.7199 77.3975 47.8892C76.9698 48.0554 76.4804 48.1385 75.9295 48.1385ZM80.4964 48V40.9091H82.1167V42.0909H82.1906C82.3199 41.6816 82.5415 41.3661 82.8554 41.1445C83.1724 40.9199 83.534 40.8075 83.9403 40.8075C84.0326 40.8075 84.1357 40.8121 84.2496 40.8214C84.3665 40.8275 84.4635 40.8383 84.5404 40.8537V42.391C84.4696 42.3664 84.3573 42.3448 84.2034 42.3263C84.0526 42.3048 83.9064 42.294 83.7648 42.294C83.4601 42.294 83.1862 42.3602 82.9431 42.4925C82.703 42.6218 82.5138 42.8018 82.3753 43.0327C82.2368 43.2635 82.1675 43.5297 82.1675 43.8313V48H80.4964ZM91.2551 42.7834L89.7316 42.9496C89.6885 42.7957 89.6131 42.651 89.5054 42.5156C89.4008 42.3802 89.2592 42.271 89.0807 42.1879C88.9022 42.1048 88.6837 42.0632 88.4252 42.0632C88.0774 42.0632 87.785 42.1386 87.548 42.2894C87.3141 42.4402 87.1987 42.6357 87.2018 42.8757C87.1987 43.0819 87.2741 43.2496 87.428 43.3789C87.585 43.5082 87.8435 43.6143 88.2036 43.6974L89.4131 43.956C90.084 44.1006 90.5826 44.3299 90.9088 44.6438C91.2381 44.9577 91.4043 45.3686 91.4074 45.8764C91.4043 46.3227 91.2735 46.7166 91.015 47.0582C90.7596 47.3968 90.4041 47.6615 89.9486 47.8523C89.4931 48.0431 88.9699 48.1385 88.379 48.1385C87.5111 48.1385 86.8125 47.9569 86.2831 47.5938C85.7538 47.2275 85.4383 46.7182 85.3367 46.0657L86.9664 45.9087C87.0402 46.2288 87.1972 46.4704 87.4372 46.6335C87.6773 46.7966 87.9897 46.8782 88.3744 46.8782C88.7714 46.8782 89.0899 46.7966 89.33 46.6335C89.5731 46.4704 89.6947 46.2688 89.6947 46.0288C89.6947 45.8256 89.6162 45.6579 89.4593 45.5256C89.3054 45.3932 89.0653 45.2917 88.7391 45.2209L87.5296 44.967C86.8494 44.8254 86.3462 44.5869 86.02 44.2514C85.6937 43.9129 85.5322 43.4851 85.5352 42.968C85.5322 42.531 85.6507 42.1525 85.8907 41.8324C86.1338 41.5092 86.4709 41.2599 86.9017 41.0845C87.3357 40.906 87.8358 40.8168 88.4021 40.8168C89.233 40.8168 89.887 40.9937 90.3641 41.3477C90.8442 41.7016 91.1412 42.1802 91.2551 42.7834ZM96.3263 40.9091V42.2017H92.2499V40.9091H96.3263ZM93.2563 39.2102H94.9275V45.8672C94.9275 46.0919 94.9613 46.2642 95.029 46.3842C95.0998 46.5012 95.1921 46.5812 95.306 46.6243C95.4199 46.6674 95.5461 46.6889 95.6846 46.6889C95.7892 46.6889 95.8846 46.6812 95.9708 46.6658C96.06 46.6504 96.1278 46.6366 96.1739 46.6243L96.4555 47.9308C96.3663 47.9615 96.2385 47.9954 96.0724 48.0323C95.9092 48.0692 95.7092 48.0908 95.4722 48.0969C95.0537 48.1093 94.6766 48.0462 94.3412 47.9077C94.0057 47.7661 93.7395 47.5476 93.5425 47.2521C93.3486 46.9567 93.2532 46.5874 93.2563 46.1442V39.2102ZM97.7239 48V40.9091H99.3443V42.0909H99.4181C99.5474 41.6816 99.769 41.3661 100.083 41.1445C100.4 40.9199 100.762 40.8075 101.168 40.8075C101.26 40.8075 101.363 40.8121 101.477 40.8214C101.594 40.8275 101.691 40.8383 101.768 40.8537V42.391C101.697 42.3664 101.585 42.3448 101.431 42.3263C101.28 42.3048 101.134 42.294 100.992 42.294C100.688 42.294 100.414 42.3602 100.171 42.4925C99.9306 42.6218 99.7413 42.8018 99.6028 43.0327C99.4643 43.2635 99.3951 43.5297 99.3951 43.8313V48H97.7239ZM107.398 45.0178V40.9091H109.069V48H107.449V46.7397H107.375C107.215 47.1367 106.951 47.4614 106.585 47.7138C106.222 47.9661 105.774 48.0923 105.242 48.0923C104.777 48.0923 104.366 47.9892 104.009 47.783C103.655 47.5737 103.378 47.2706 103.178 46.8736C102.978 46.4735 102.878 45.9903 102.878 45.424V40.9091H104.549V45.1655C104.549 45.6148 104.672 45.9718 104.919 46.2365C105.165 46.5012 105.488 46.6335 105.888 46.6335C106.134 46.6335 106.373 46.5735 106.604 46.4535C106.835 46.3335 107.024 46.1549 107.172 45.918C107.322 45.6779 107.398 45.3778 107.398 45.0178ZM112.311 45.7749L112.306 43.7575H112.574L115.122 40.9091H117.075L113.94 44.3991H113.594L112.311 45.7749ZM110.787 48V38.5455H112.459V48H110.787ZM115.238 48L112.929 44.7731L114.056 43.5959L117.237 48H115.238ZM121.73 40.9091V42.2017H117.653V40.9091H121.73ZM118.66 39.2102H120.331V45.8672C120.331 46.0919 120.365 46.2642 120.432 46.3842C120.503 46.5012 120.595 46.5812 120.709 46.6243C120.823 46.6674 120.949 46.6889 121.088 46.6889C121.193 46.6889 121.288 46.6812 121.374 46.6658C121.463 46.6504 121.531 46.6366 121.577 46.6243L121.859 47.9308C121.77 47.9615 121.642 47.9954 121.476 48.0323C121.313 48.0692 121.113 48.0908 120.876 48.0969C120.457 48.1093 120.08 48.0462 119.744 47.9077C119.409 47.7661 119.143 47.5476 118.946 47.2521C118.752 46.9567 118.657 46.5874 118.66 46.1442V39.2102ZM127.647 45.0178V40.9091H129.318V48H127.698V46.7397H127.624C127.464 47.1367 127.2 47.4614 126.834 47.7138C126.471 47.9661 126.023 48.0923 125.491 48.0923C125.026 48.0923 124.615 47.9892 124.258 47.783C123.904 47.5737 123.627 47.2706 123.427 46.8736C123.227 46.4735 123.127 45.9903 123.127 45.424V40.9091H124.798V45.1655C124.798 45.6148 124.921 45.9718 125.168 46.2365C125.414 46.5012 125.737 46.6335 126.137 46.6335C126.383 46.6335 126.622 46.5735 126.853 46.4535C127.084 46.3335 127.273 46.1549 127.421 45.918C127.571 45.6779 127.647 45.3778 127.647 45.0178ZM131.036 48V40.9091H132.657V42.0909H132.731C132.86 41.6816 133.081 41.3661 133.395 41.1445C133.712 40.9199 134.074 40.8075 134.48 40.8075C134.573 40.8075 134.676 40.8121 134.79 40.8214C134.907 40.8275 135.003 40.8383 135.08 40.8537V42.391C135.01 42.3664 134.897 42.3448 134.743 42.3263C134.593 42.3048 134.446 42.294 134.305 42.294C134 42.294 133.726 42.3602 133.483 42.4925C133.243 42.6218 133.054 42.8018 132.915 43.0327C132.777 43.2635 132.708 43.5297 132.708 43.8313V48H131.036Z" fill="black"/>
<rect x="151" y="9" width="17" height="17" fill="#4FA37A"/>
</svg>
