<svg width="220" height="82" viewBox="0 0 220 82" fill="none" xmlns="http://www.w3.org/2000/svg">
<rect width="220" height="82" rx="15" fill="white"/>
<rect x="191" y="9" width="17" height="17" fill="#003D23"/>
<path d="M15.0387 35V25.5455H16.4652V30.0604H16.5806L20.5462 25.5455H22.342L18.5288 29.8018L22.3558 35H20.6385L17.5824 30.7759L16.4652 32.0593V35H15.0387ZM26.0963 35.1431C25.3977 35.1431 24.796 34.9938 24.2913 34.6953C23.7896 34.3937 23.4018 33.9705 23.1279 33.4258C22.8571 32.878 22.7217 32.2363 22.7217 31.5007C22.7217 30.7744 22.8571 30.1342 23.1279 29.5803C23.4018 29.0263 23.7835 28.5939 24.2728 28.283C24.7652 27.9722 25.3408 27.8168 25.9994 27.8168C26.3995 27.8168 26.7873 27.8829 27.1627 28.0153C27.5382 28.1476 27.8752 28.3554 28.1737 28.6385C28.4723 28.9216 28.7077 29.2894 28.8801 29.7418C29.0524 30.1912 29.1386 30.7375 29.1386 31.3807V31.87H23.5019V30.8359H27.786C27.786 30.4728 27.7121 30.1512 27.5644 29.8711C27.4166 29.5879 27.2089 29.3648 26.9411 29.2017C26.6765 29.0386 26.3656 28.957 26.0086 28.957C25.6208 28.957 25.2823 29.0524 24.993 29.2433C24.7068 29.431 24.4852 29.6772 24.3282 29.9819C24.1743 30.2835 24.0974 30.6113 24.0974 30.9652V31.7731C24.0974 32.247 24.1805 32.6502 24.3467 32.9826C24.516 33.315 24.7514 33.5689 25.053 33.7443C25.3546 33.9167 25.707 34.0028 26.1102 34.0028C26.3718 34.0028 26.6103 33.9659 26.8257 33.892C27.0412 33.8151 27.2274 33.7012 27.3843 33.5504C27.5413 33.3996 27.6613 33.2134 27.7444 32.9918L29.0509 33.2273C28.9462 33.612 28.7585 33.949 28.4877 34.2383C28.2199 34.5245 27.8829 34.7476 27.4767 34.9077C27.0735 35.0646 26.6134 35.1431 26.0963 35.1431ZM32.0504 25.5455V35H30.6701V25.5455H32.0504ZM35.971 35.157C35.5216 35.157 35.1154 35.0739 34.7522 34.9077C34.3891 34.7384 34.1013 34.4937 33.8889 34.1737C33.6797 33.8536 33.575 33.4612 33.575 32.9964C33.575 32.5964 33.652 32.267 33.8058 32.0085C33.9597 31.75 34.1675 31.5453 34.4291 31.3945C34.6907 31.2437 34.983 31.1299 35.3062 31.0529C35.6294 30.976 35.9587 30.9175 36.2941 30.8775C36.7188 30.8282 37.0635 30.7882 37.3282 30.7575C37.5929 30.7236 37.7852 30.6697 37.9053 30.5959C38.0253 30.522 38.0853 30.402 38.0853 30.2358V30.2035C38.0853 29.8003 37.9714 29.4879 37.7437 29.2663C37.519 29.0447 37.1836 28.9339 36.7373 28.9339C36.2726 28.9339 35.9063 29.037 35.6386 29.2433C35.3739 29.4464 35.1908 29.6726 35.0892 29.9219L33.792 29.6264C33.9459 29.1955 34.1705 28.8478 34.466 28.5831C34.7645 28.3153 35.1077 28.1214 35.4955 28.0014C35.8833 27.8783 36.291 27.8168 36.7188 27.8168C37.002 27.8168 37.3021 27.8506 37.6191 27.9183C37.9391 27.983 38.2377 28.103 38.5146 28.2784C38.7947 28.4538 39.024 28.7047 39.2025 29.0309C39.381 29.354 39.4703 29.7741 39.4703 30.2912V35H38.1222V34.0305H38.0669C37.9776 34.209 37.8437 34.3845 37.6652 34.5568C37.4867 34.7292 37.2574 34.8723 36.9774 34.9862C36.6973 35.1 36.3618 35.157 35.971 35.157ZM36.271 34.049C36.6527 34.049 36.9789 33.9736 37.2497 33.8228C37.5236 33.672 37.7314 33.475 37.873 33.2319C38.0176 32.9857 38.0899 32.7225 38.0899 32.4425V31.5284C38.0407 31.5777 37.9453 31.6238 37.8037 31.6669C37.6652 31.7069 37.5067 31.7423 37.3282 31.7731C37.1497 31.8008 36.9758 31.8269 36.8066 31.8516C36.6373 31.8731 36.4957 31.8916 36.3818 31.907C36.1141 31.9408 35.8694 31.9978 35.6478 32.0778C35.4293 32.1578 35.2539 32.2732 35.1215 32.424C34.9923 32.5717 34.9276 32.7687 34.9276 33.0149C34.9276 33.3565 35.0538 33.6151 35.3062 33.7905C35.5586 33.9628 35.8802 34.049 36.271 34.049ZM46.6223 29.6403L45.3713 29.8619C45.319 29.7018 45.2359 29.5495 45.122 29.4048C45.0112 29.2602 44.8604 29.1417 44.6696 29.0494C44.4788 28.957 44.2402 28.9109 43.954 28.9109C43.5632 28.9109 43.2369 28.9986 42.9753 29.174C42.7137 29.3464 42.5829 29.5695 42.5829 29.8434C42.5829 30.0804 42.6706 30.2712 42.8461 30.4158C43.0215 30.5605 43.3046 30.679 43.6955 30.7713L44.8219 31.0298C45.4744 31.1806 45.9606 31.413 46.2807 31.7269C46.6008 32.0408 46.7608 32.4486 46.7608 32.9503C46.7608 33.375 46.6377 33.7536 46.3915 34.0859C46.1484 34.4152 45.8083 34.6738 45.3713 34.8615C44.9373 35.0492 44.4341 35.1431 43.8617 35.1431C43.0676 35.1431 42.4198 34.9738 41.9181 34.6353C41.4165 34.2937 41.1087 33.8089 40.9949 33.1811L42.329 32.978C42.4121 33.3258 42.5829 33.5889 42.8414 33.7674C43.1 33.9428 43.437 34.0305 43.8525 34.0305C44.3049 34.0305 44.6665 33.9367 44.9373 33.7489C45.2082 33.5581 45.3436 33.3258 45.3436 33.0518C45.3436 32.8303 45.2605 32.6441 45.0943 32.4933C44.9312 32.3424 44.6803 32.2286 44.3418 32.1516L43.1415 31.8885C42.4798 31.7377 41.9905 31.4976 41.6735 31.1683C41.3596 30.839 41.2026 30.422 41.2026 29.9173C41.2026 29.4987 41.3195 29.1325 41.5534 28.8185C41.7873 28.5046 42.1105 28.2599 42.5229 28.0845C42.9353 27.906 43.4077 27.8168 43.9402 27.8168C44.7065 27.8168 45.3097 27.983 45.7498 28.3153C46.1899 28.6446 46.4808 29.0863 46.6223 29.6403ZM51.8297 35V25.5455H57.6926V26.7734H53.2562V29.6541H57.2725V30.8775H53.2562V35H51.8297ZM60.7164 25.5455V35H59.3361V25.5455H60.7164ZM65.6295 35.1431C64.9309 35.1431 64.3292 34.9938 63.8245 34.6953C63.3228 34.3937 62.935 33.9705 62.6611 33.4258C62.3903 32.878 62.2549 32.2363 62.2549 31.5007C62.2549 30.7744 62.3903 30.1342 62.6611 29.5803C62.935 29.0263 63.3167 28.5939 63.806 28.283C64.2984 27.9722 64.874 27.8168 65.5326 27.8168C65.9327 27.8168 66.3205 27.8829 66.6959 28.0153C67.0714 28.1476 67.4084 28.3554 67.7069 28.6385C68.0055 28.9216 68.2409 29.2894 68.4133 29.7418C68.5856 30.1912 68.6718 30.7375 68.6718 31.3807V31.87H63.0351V30.8359H67.3192C67.3192 30.4728 67.2453 30.1512 67.0976 29.8711C66.9498 29.5879 66.7421 29.3648 66.4743 29.2017C66.2097 29.0386 65.8988 28.957 65.5418 28.957C65.154 28.957 64.8155 29.0524 64.5262 29.2433C64.24 29.431 64.0184 29.6772 63.8614 29.9819C63.7075 30.2835 63.6306 30.6113 63.6306 30.9652V31.7731C63.6306 32.247 63.7137 32.6502 63.8799 32.9826C64.0492 33.315 64.2846 33.5689 64.5862 33.7443C64.8878 33.9167 65.2402 34.0028 65.6434 34.0028C65.905 34.0028 66.1435 33.9659 66.3589 33.892C66.5744 33.8151 66.7606 33.7012 66.9175 33.5504C67.0745 33.3996 67.1945 33.2134 67.2776 32.9918L68.5841 33.2273C68.4794 33.612 68.2917 33.949 68.0209 34.2383C67.7531 34.5245 67.4161 34.7476 67.0099 34.9077C66.6067 35.0646 66.1466 35.1431 65.6295 35.1431ZM71.1278 27.9091L72.6927 30.6697L74.2716 27.9091H75.7812L73.5699 31.4545L75.7996 35H74.29L72.6927 32.3501L71.1001 35H69.5858L71.7925 31.4545L69.6135 27.9091H71.1278ZM77.1984 35V27.9091H78.5787V35H77.1984ZM77.8955 26.815C77.6555 26.815 77.4492 26.735 77.2769 26.5749C77.1076 26.4118 77.023 26.2179 77.023 25.9933C77.023 25.7655 77.1076 25.5716 77.2769 25.4116C77.4492 25.2485 77.6555 25.1669 77.8955 25.1669C78.1356 25.1669 78.3402 25.2485 78.5095 25.4116C78.6818 25.5716 78.768 25.7655 78.768 25.9933C78.768 26.2179 78.6818 26.4118 78.5095 26.5749C78.3402 26.735 78.1356 26.815 77.8955 26.815ZM80.5465 35V25.5455H81.9268V29.0586H82.0099C82.09 28.9109 82.2054 28.7401 82.3562 28.5462C82.507 28.3523 82.7163 28.183 82.984 28.0384C83.2518 27.8906 83.6057 27.8168 84.0458 27.8168C84.6183 27.8168 85.1291 27.9614 85.5785 28.2507C86.0278 28.54 86.3802 28.957 86.6357 29.5018C86.8942 30.0465 87.0234 30.7021 87.0234 31.4684C87.0234 32.2347 86.8957 32.8918 86.6403 33.4396C86.3848 33.9844 86.034 34.4045 85.5877 34.6999C85.1415 34.9923 84.6321 35.1385 84.0597 35.1385C83.6288 35.1385 83.2764 35.0662 83.0025 34.9215C82.7317 34.7769 82.5193 34.6076 82.3654 34.4137C82.2115 34.2198 82.093 34.0475 82.0099 33.8967H81.8945V35H80.5465ZM81.8991 31.4545C81.8991 31.9531 81.9715 32.3902 82.1161 32.7656C82.2608 33.1411 82.4701 33.435 82.744 33.6474C83.0179 33.8567 83.3533 33.9613 83.7504 33.9613C84.1628 33.9613 84.5075 33.852 84.7844 33.6335C85.0614 33.4119 85.2707 33.1119 85.4123 32.7333C85.5569 32.3548 85.6293 31.9285 85.6293 31.4545C85.6293 30.9867 85.5585 30.5666 85.4169 30.1942C85.2784 29.8219 85.0691 29.5279 84.7891 29.3125C84.5121 29.0971 84.1658 28.9893 83.7504 28.9893C83.3503 28.9893 83.0117 29.0924 82.7347 29.2987C82.4608 29.5049 82.2531 29.7926 82.1115 30.1619C81.9699 30.5312 81.8991 30.9621 81.8991 31.4545ZM89.9537 25.5455V35H88.5734V25.5455H89.9537ZM94.8668 35.1431C94.1682 35.1431 93.5665 34.9938 93.0618 34.6953C92.5601 34.3937 92.1723 33.9705 91.8984 33.4258C91.6276 32.878 91.4922 32.2363 91.4922 31.5007C91.4922 30.7744 91.6276 30.1342 91.8984 29.5803C92.1723 29.0263 92.554 28.5939 93.0433 28.283C93.5357 27.9722 94.1113 27.8168 94.7699 27.8168C95.17 27.8168 95.5578 27.8829 95.9332 28.0153C96.3087 28.1476 96.6457 28.3554 96.9442 28.6385C97.2428 28.9216 97.4782 29.2894 97.6506 29.7418C97.8229 30.1912 97.9091 30.7375 97.9091 31.3807V31.87H92.2724V30.8359H96.5565C96.5565 30.4728 96.4826 30.1512 96.3349 29.8711C96.1871 29.5879 95.9794 29.3648 95.7116 29.2017C95.447 29.0386 95.1361 28.957 94.7791 28.957C94.3913 28.957 94.0528 29.0524 93.7635 29.2433C93.4773 29.431 93.2557 29.6772 93.0987 29.9819C92.9448 30.2835 92.8679 30.6113 92.8679 30.9652V31.7731C92.8679 32.247 92.951 32.6502 93.1172 32.9826C93.2865 33.315 93.5219 33.5689 93.8235 33.7443C94.1251 33.9167 94.4775 34.0028 94.8807 34.0028C95.1423 34.0028 95.3808 33.9659 95.5962 33.892C95.8117 33.8151 95.9979 33.7012 96.1548 33.5504C96.3118 33.3996 96.4318 33.2134 96.5149 32.9918L97.8214 33.2273C97.7167 33.612 97.529 33.949 97.2582 34.2383C96.9904 34.5245 96.6534 34.7476 96.2472 34.9077C95.844 35.0646 95.3839 35.1431 94.8668 35.1431Z" fill="#A5A5B0"/>
<path d="M25.5455 50.1818C25.5455 51.4356 25.3106 52.5095 24.8409 53.4034C24.375 54.2936 23.7386 54.9754 22.9318 55.4489C22.1288 55.9223 21.2178 56.1591 20.1989 56.1591C19.1799 56.1591 18.267 55.9223 17.4602 55.4489C16.6572 54.9716 16.0208 54.2879 15.5511 53.3977C15.0852 52.5038 14.8523 51.4318 14.8523 50.1818C14.8523 48.928 15.0852 47.8561 15.5511 46.9659C16.0208 46.072 16.6572 45.3883 17.4602 44.9148C18.267 44.4413 19.1799 44.2045 20.1989 44.2045C21.2178 44.2045 22.1288 44.4413 22.9318 44.9148C23.7386 45.3883 24.375 46.072 24.8409 46.9659C25.3106 47.8561 25.5455 48.928 25.5455 50.1818ZM23.4261 50.1818C23.4261 49.2992 23.2879 48.5549 23.0114 47.9489C22.7386 47.339 22.3598 46.8788 21.875 46.5682C21.3902 46.2538 20.8314 46.0966 20.1989 46.0966C19.5663 46.0966 19.0076 46.2538 18.5227 46.5682C18.0379 46.8788 17.6572 47.339 17.3807 47.9489C17.108 48.5549 16.9716 49.2992 16.9716 50.1818C16.9716 51.0644 17.108 51.8106 17.3807 52.4205C17.6572 53.0265 18.0379 53.4867 18.5227 53.8011C19.0076 54.1117 19.5663 54.267 20.1989 54.267C20.8314 54.267 21.3902 54.1117 21.875 53.8011C22.3598 53.4867 22.7386 53.0265 23.0114 52.4205C23.2879 51.8106 23.4261 51.0644 23.4261 50.1818ZM29.5043 50.8864V56H27.4474V47.2727H29.4134V48.7557H29.5156C29.7164 48.267 30.0365 47.8788 30.4759 47.5909C30.919 47.303 31.4664 47.1591 32.1179 47.1591C32.7202 47.1591 33.2448 47.2879 33.6918 47.5455C34.1425 47.803 34.491 48.1761 34.7372 48.6648C34.9872 49.1534 35.1103 49.7462 35.1065 50.4432V56H33.0497V50.7614C33.0497 50.178 32.8982 49.7216 32.5952 49.392C32.2959 49.0625 31.8812 48.8977 31.3509 48.8977C30.991 48.8977 30.6709 48.9773 30.3906 49.1364C30.1141 49.2917 29.8963 49.517 29.7372 49.8125C29.5819 50.108 29.5043 50.4659 29.5043 50.8864ZM39.2543 44.3636V56H37.1974V44.3636H39.2543ZM41.3693 56V47.2727H43.4261V56H41.3693ZM42.4034 46.0341C42.0777 46.0341 41.7973 45.9261 41.5625 45.7102C41.3277 45.4905 41.2102 45.2273 41.2102 44.9205C41.2102 44.6098 41.3277 44.3466 41.5625 44.1307C41.7973 43.911 42.0777 43.8011 42.4034 43.8011C42.733 43.8011 43.0133 43.911 43.2443 44.1307C43.4792 44.3466 43.5966 44.6098 43.5966 44.9205C43.5966 45.2273 43.4792 45.4905 43.2443 45.7102C43.0133 45.9261 42.733 46.0341 42.4034 46.0341ZM47.598 50.8864V56H45.5412V47.2727H47.5071V48.7557H47.6094C47.8101 48.267 48.1302 47.8788 48.5696 47.5909C49.0128 47.303 49.5601 47.1591 50.2116 47.1591C50.8139 47.1591 51.3385 47.2879 51.7855 47.5455C52.2363 47.803 52.5848 48.1761 52.831 48.6648C53.081 49.1534 53.2041 49.7462 53.2003 50.4432V56H51.1435V50.7614C51.1435 50.178 50.992 49.7216 50.6889 49.392C50.3897 49.0625 49.9749 48.8977 49.4446 48.8977C49.0848 48.8977 48.7647 48.9773 48.4844 49.1364C48.2079 49.2917 47.9901 49.517 47.831 49.8125C47.6757 50.108 47.598 50.4659 47.598 50.8864ZM59.1548 56.1705C58.2798 56.1705 57.5241 55.9886 56.8878 55.625C56.2552 55.2576 55.7685 54.7386 55.4276 54.0682C55.0866 53.3939 54.9162 52.6004 54.9162 51.6875C54.9162 50.7898 55.0866 50.0019 55.4276 49.3239C55.7723 48.642 56.2533 48.1117 56.8707 47.733C57.4882 47.3504 58.2135 47.1591 59.0469 47.1591C59.5848 47.1591 60.0923 47.2462 60.5696 47.4205C61.0507 47.5909 61.4749 47.8561 61.8423 48.2159C62.2135 48.5758 62.5052 49.0341 62.7173 49.5909C62.9295 50.1439 63.0355 50.803 63.0355 51.5682V52.1989H55.8821V50.8125H61.0639C61.0601 50.4186 60.9749 50.0682 60.8082 49.7614C60.6416 49.4508 60.4086 49.2064 60.1094 49.0284C59.8139 48.8504 59.4692 48.7614 59.0753 48.7614C58.6548 48.7614 58.2855 48.8636 57.9673 49.0682C57.6491 49.2689 57.401 49.5341 57.223 49.8636C57.0488 50.1894 56.9598 50.5473 56.956 50.9375V52.1477C56.956 52.6553 57.0488 53.0909 57.2344 53.4545C57.42 53.8144 57.6795 54.0909 58.0128 54.2841C58.3461 54.4735 58.7363 54.5682 59.1832 54.5682C59.4825 54.5682 59.7533 54.5265 59.9957 54.4432C60.2382 54.3561 60.4484 54.2292 60.6264 54.0625C60.8045 53.8958 60.9389 53.6894 61.0298 53.4432L62.9503 53.6591C62.8291 54.1667 62.598 54.6098 62.2571 54.9886C61.92 55.3636 61.4882 55.6553 60.9616 55.8636C60.4351 56.0682 59.8329 56.1705 59.1548 56.1705ZM72.2216 56.1705C71.4261 56.1705 70.7424 56.0265 70.1705 55.7386C69.5985 55.4508 69.1572 55.0625 68.8466 54.5739C68.5398 54.0814 68.3864 53.5265 68.3864 52.9091C68.3864 52.4432 68.4811 52.0303 68.6705 51.6705C68.8636 51.3106 69.1288 50.9773 69.4659 50.6705C69.8068 50.3636 70.2008 50.0587 70.6477 49.7557L72.7102 48.3523C73.0133 48.1553 73.2424 47.947 73.3977 47.7273C73.5568 47.5076 73.6364 47.25 73.6364 46.9545C73.6364 46.7045 73.5303 46.4678 73.3182 46.2443C73.1098 46.0208 72.822 45.9091 72.4545 45.9091C72.2083 45.9091 71.9905 45.9678 71.8011 46.0852C71.6155 46.1989 71.4697 46.3485 71.3636 46.5341C71.2614 46.7197 71.2102 46.9167 71.2102 47.125C71.2102 47.3788 71.2803 47.6364 71.4205 47.8977C71.5644 48.1591 71.75 48.4299 71.9773 48.7102C72.2083 48.9905 72.4545 49.2879 72.7159 49.6023L78.1761 56H75.9489L71.4148 50.8068C71.0777 50.4129 70.7519 50.0246 70.4375 49.642C70.1269 49.2595 69.8712 48.8617 69.6705 48.4489C69.4735 48.0322 69.375 47.5814 69.375 47.0966C69.375 46.5473 69.5019 46.0568 69.7557 45.625C70.0095 45.1894 70.3636 44.8466 70.8182 44.5966C71.2765 44.3466 71.8125 44.2216 72.4261 44.2216C73.0398 44.2216 73.5663 44.3428 74.0057 44.5852C74.4451 44.8277 74.7841 45.1496 75.0227 45.5511C75.2614 45.9527 75.3807 46.3902 75.3807 46.8636C75.3807 47.4129 75.2443 47.9053 74.9716 48.3409C74.6989 48.7727 74.3201 49.1648 73.8352 49.517L71.483 51.2386C71.0966 51.5189 70.8201 51.803 70.6534 52.0909C70.4867 52.375 70.4034 52.6174 70.4034 52.8182C70.4034 53.125 70.4811 53.4034 70.6364 53.6534C70.7917 53.9034 71.0095 54.1042 71.2898 54.2557C71.5739 54.4034 71.9053 54.4773 72.2841 54.4773C72.7008 54.4773 73.1117 54.3845 73.517 54.1989C73.9223 54.0095 74.2917 53.7405 74.625 53.392C74.9583 53.0436 75.2235 52.6269 75.4205 52.142C75.6174 51.6534 75.7159 51.1117 75.7159 50.517H77.483C77.483 51.2519 77.4015 51.892 77.2386 52.4375C77.0758 52.9792 76.8655 53.4375 76.608 53.8125C76.3504 54.1837 76.0777 54.4811 75.7898 54.7045C75.6989 54.7689 75.6117 54.8333 75.5284 54.8977C75.4451 54.9621 75.358 55.0265 75.267 55.0909C74.858 55.4621 74.3788 55.7348 73.8295 55.9091C73.2841 56.0833 72.7481 56.1705 72.2216 56.1705ZM83.4134 56V44.3636H87.777C88.6709 44.3636 89.4209 44.5303 90.027 44.8636C90.6368 45.197 91.0971 45.6553 91.4077 46.2386C91.7221 46.8182 91.8793 47.4773 91.8793 48.2159C91.8793 48.9621 91.7221 49.625 91.4077 50.2045C91.0933 50.7841 90.6293 51.2405 90.0156 51.5739C89.402 51.9034 88.6463 52.0682 87.7486 52.0682H84.8565V50.3352H87.4645C87.9872 50.3352 88.4152 50.2443 88.7486 50.0625C89.0819 49.8807 89.3281 49.6307 89.4872 49.3125C89.6501 48.9943 89.7315 48.6288 89.7315 48.2159C89.7315 47.803 89.6501 47.4394 89.4872 47.125C89.3281 46.8106 89.08 46.5663 88.7429 46.392C88.4096 46.214 87.9796 46.125 87.4531 46.125H85.5213V56H83.4134ZM93.6193 56V47.2727H95.6136V48.7273H95.7045C95.8636 48.2235 96.1364 47.8352 96.5227 47.5625C96.9129 47.286 97.358 47.1477 97.858 47.1477C97.9716 47.1477 98.0985 47.1534 98.2386 47.1648C98.3826 47.1723 98.5019 47.1856 98.5966 47.2045V49.0966C98.5095 49.0663 98.3712 49.0398 98.1818 49.017C97.9962 48.9905 97.8163 48.9773 97.642 48.9773C97.267 48.9773 96.9299 49.0587 96.6307 49.2216C96.3352 49.3807 96.1023 49.6023 95.9318 49.8864C95.7614 50.1705 95.6761 50.4981 95.6761 50.8693V56H93.6193ZM99.9631 56V47.2727H102.02V56H99.9631ZM100.997 46.0341C100.671 46.0341 100.391 45.9261 100.156 45.7102C99.9214 45.4905 99.804 45.2273 99.804 44.9205C99.804 44.6098 99.9214 44.3466 100.156 44.1307C100.391 43.911 100.671 43.8011 100.997 43.8011C101.327 43.8011 101.607 43.911 101.838 44.1307C102.073 44.3466 102.19 44.6098 102.19 44.9205C102.19 45.2273 102.073 45.4905 101.838 45.7102C101.607 45.9261 101.327 46.0341 100.997 46.0341ZM111.93 47.2727L108.822 56H106.55L103.442 47.2727H105.635L107.641 53.7557H107.732L109.743 47.2727H111.93ZM115.615 56.1761C115.062 56.1761 114.564 56.0777 114.121 55.8807C113.681 55.6799 113.333 55.3845 113.075 54.9943C112.821 54.6042 112.695 54.1231 112.695 53.5511C112.695 53.0587 112.786 52.6515 112.967 52.3295C113.149 52.0076 113.397 51.75 113.712 51.5568C114.026 51.3636 114.38 51.2178 114.774 51.1193C115.172 51.017 115.583 50.9432 116.007 50.8977C116.518 50.8447 116.933 50.7973 117.251 50.7557C117.57 50.7102 117.801 50.642 117.945 50.5511C118.092 50.4564 118.166 50.3106 118.166 50.1136V50.0795C118.166 49.6515 118.039 49.3201 117.786 49.0852C117.532 48.8504 117.166 48.733 116.689 48.733C116.185 48.733 115.786 48.8428 115.49 49.0625C115.198 49.2822 115.001 49.5417 114.899 49.8409L112.979 49.5682C113.13 49.0379 113.38 48.5947 113.729 48.2386C114.077 47.8788 114.503 47.6098 115.007 47.4318C115.511 47.25 116.068 47.1591 116.678 47.1591C117.098 47.1591 117.517 47.2083 117.933 47.3068C118.35 47.4053 118.731 47.5682 119.075 47.7955C119.42 48.0189 119.696 48.3239 119.905 48.7102C120.117 49.0966 120.223 49.5795 120.223 50.1591V56H118.246V54.8011H118.178C118.053 55.0436 117.876 55.2708 117.649 55.483C117.426 55.6913 117.143 55.8598 116.803 55.9886C116.465 56.1136 116.07 56.1761 115.615 56.1761ZM116.149 54.6648C116.562 54.6648 116.92 54.5833 117.223 54.4205C117.526 54.2538 117.759 54.0341 117.922 53.7614C118.089 53.4886 118.172 53.1913 118.172 52.8693V51.8409C118.107 51.8939 117.998 51.9432 117.842 51.9886C117.691 52.0341 117.52 52.0739 117.331 52.108C117.142 52.142 116.954 52.1723 116.768 52.1989C116.583 52.2254 116.422 52.2481 116.286 52.267C115.979 52.3087 115.704 52.3769 115.462 52.4716C115.219 52.5663 115.028 52.6989 114.888 52.8693C114.748 53.036 114.678 53.2519 114.678 53.517C114.678 53.8958 114.816 54.1818 115.092 54.375C115.369 54.5682 115.721 54.6648 116.149 54.6648ZM126.649 47.2727V48.8636H121.632V47.2727H126.649ZM122.871 45.1818H124.928V53.375C124.928 53.6515 124.969 53.8636 125.053 54.0114C125.14 54.1553 125.253 54.2538 125.393 54.3068C125.534 54.3598 125.689 54.3864 125.859 54.3864C125.988 54.3864 126.106 54.3769 126.212 54.358C126.321 54.339 126.405 54.322 126.462 54.3068L126.808 55.9148C126.698 55.9527 126.541 55.9943 126.337 56.0398C126.136 56.0852 125.89 56.1117 125.598 56.1193C125.083 56.1345 124.619 56.0568 124.206 55.8864C123.793 55.7121 123.465 55.4432 123.223 55.0795C122.984 54.7159 122.867 54.2614 122.871 53.7159V45.1818ZM132.139 56.1705C131.264 56.1705 130.509 55.9886 129.872 55.625C129.24 55.2576 128.753 54.7386 128.412 54.0682C128.071 53.3939 127.901 52.6004 127.901 51.6875C127.901 50.7898 128.071 50.0019 128.412 49.3239C128.757 48.642 129.238 48.1117 129.855 47.733C130.473 47.3504 131.198 47.1591 132.031 47.1591C132.569 47.1591 133.077 47.2462 133.554 47.4205C134.035 47.5909 134.459 47.8561 134.827 48.2159C135.198 48.5758 135.49 49.0341 135.702 49.5909C135.914 50.1439 136.02 50.803 136.02 51.5682V52.1989H128.866V50.8125H134.048C134.045 50.4186 133.959 50.0682 133.793 49.7614C133.626 49.4508 133.393 49.2064 133.094 49.0284C132.798 48.8504 132.454 48.7614 132.06 48.7614C131.639 48.7614 131.27 48.8636 130.952 49.0682C130.634 49.2689 130.385 49.5341 130.207 49.8636C130.033 50.1894 129.944 50.5473 129.94 50.9375V52.1477C129.94 52.6553 130.033 53.0909 130.219 53.4545C130.404 53.8144 130.664 54.0909 130.997 54.2841C131.33 54.4735 131.721 54.5682 132.168 54.5682C132.467 54.5682 132.738 54.5265 132.98 54.4432C133.223 54.3561 133.433 54.2292 133.611 54.0625C133.789 53.8958 133.923 53.6894 134.014 53.4432L135.935 53.6591C135.813 54.1667 135.582 54.6098 135.241 54.9886C134.904 55.3636 134.473 55.6553 133.946 55.8636C133.42 56.0682 132.817 56.1705 132.139 56.1705ZM142.51 43.8182L138.76 57.75H136.959L140.709 43.8182H142.51ZM151.709 48.0795C151.614 47.7727 151.483 47.4981 151.317 47.2557C151.154 47.0095 150.957 46.7992 150.726 46.625C150.499 46.4508 150.237 46.3201 149.942 46.233C149.646 46.142 149.324 46.0966 148.976 46.0966C148.351 46.0966 147.794 46.2538 147.305 46.5682C146.817 46.8826 146.432 47.3447 146.152 47.9545C145.875 48.5606 145.737 49.2992 145.737 50.1705C145.737 51.0492 145.875 51.7936 146.152 52.4034C146.429 53.0133 146.813 53.4773 147.305 53.7955C147.798 54.1098 148.37 54.267 149.021 54.267C149.612 54.267 150.124 54.1534 150.555 53.9261C150.991 53.6989 151.326 53.3769 151.561 52.9602C151.796 52.5398 151.913 52.0473 151.913 51.483L152.391 51.5568H149.232V49.9091H153.953V51.3068C153.953 52.303 153.741 53.1648 153.317 53.892C152.893 54.6193 152.309 55.1799 151.567 55.5739C150.824 55.964 149.972 56.1591 149.01 56.1591C147.938 56.1591 146.997 55.9186 146.186 55.4375C145.379 54.9527 144.749 54.2652 144.294 53.375C143.843 52.4811 143.618 51.4205 143.618 50.1932C143.618 49.2538 143.75 48.4148 144.016 47.6761C144.285 46.9375 144.66 46.3106 145.141 45.7955C145.622 45.2765 146.186 44.8826 146.834 44.6136C147.482 44.3409 148.186 44.2045 148.947 44.2045C149.591 44.2045 150.192 44.2992 150.749 44.4886C151.305 44.6742 151.8 44.9394 152.232 45.2841C152.667 45.6288 153.025 46.0379 153.305 46.5114C153.586 46.9848 153.769 47.5076 153.857 48.0795H151.709ZM155.901 56V47.2727H157.895V48.7273H157.986C158.145 48.2235 158.418 47.8352 158.804 47.5625C159.194 47.286 159.639 47.1477 160.139 47.1477C160.253 47.1477 160.38 47.1534 160.52 47.1648C160.664 47.1723 160.783 47.1856 160.878 47.2045V49.0966C160.791 49.0663 160.652 49.0398 160.463 49.017C160.277 48.9905 160.098 48.9773 159.923 48.9773C159.548 48.9773 159.211 49.0587 158.912 49.2216C158.616 49.3807 158.384 49.6023 158.213 49.8864C158.043 50.1705 157.957 50.4981 157.957 50.8693V56H155.901ZM165.692 56.1705C164.839 56.1705 164.101 55.983 163.476 55.608C162.851 55.233 162.366 54.7083 162.021 54.0341C161.68 53.3598 161.51 52.572 161.51 51.6705C161.51 50.7689 161.68 49.9792 162.021 49.3011C162.366 48.6231 162.851 48.0966 163.476 47.7216C164.101 47.3466 164.839 47.1591 165.692 47.1591C166.544 47.1591 167.283 47.3466 167.908 47.7216C168.533 48.0966 169.016 48.6231 169.357 49.3011C169.701 49.9792 169.874 50.7689 169.874 51.6705C169.874 52.572 169.701 53.3598 169.357 54.0341C169.016 54.7083 168.533 55.233 167.908 55.608C167.283 55.983 166.544 56.1705 165.692 56.1705ZM165.703 54.5227C166.165 54.5227 166.552 54.3958 166.862 54.142C167.173 53.8845 167.404 53.5398 167.555 53.108C167.711 52.6761 167.788 52.1951 167.788 51.6648C167.788 51.1307 167.711 50.6477 167.555 50.2159C167.404 49.7803 167.173 49.4337 166.862 49.1761C166.552 48.9186 166.165 48.7898 165.703 48.7898C165.23 48.7898 164.836 48.9186 164.521 49.1761C164.211 49.4337 163.978 49.7803 163.822 50.2159C163.671 50.6477 163.595 51.1307 163.595 51.6648C163.595 52.1951 163.671 52.6761 163.822 53.108C163.978 53.5398 164.211 53.8845 164.521 54.142C164.836 54.3958 165.23 54.5227 165.703 54.5227ZM177.182 52.3295V47.2727H179.239V56H177.244V54.4489H177.153C176.956 54.9375 176.633 55.3371 176.182 55.6477C175.735 55.9583 175.184 56.1136 174.528 56.1136C173.956 56.1136 173.451 55.9867 173.011 55.733C172.576 55.4754 172.235 55.1023 171.989 54.6136C171.742 54.1212 171.619 53.5265 171.619 52.8295V47.2727H173.676V52.5114C173.676 53.0644 173.828 53.5038 174.131 53.8295C174.434 54.1553 174.831 54.3182 175.324 54.3182C175.627 54.3182 175.92 54.2443 176.205 54.0966C176.489 53.9489 176.722 53.7292 176.903 53.4375C177.089 53.142 177.182 52.7727 177.182 52.3295ZM181.354 59.2727V47.2727H183.376V48.7159H183.496C183.602 48.5038 183.751 48.2784 183.945 48.0398C184.138 47.7973 184.399 47.5909 184.729 47.4205C185.058 47.2462 185.479 47.1591 185.99 47.1591C186.664 47.1591 187.272 47.3314 187.814 47.6761C188.359 48.017 188.791 48.5227 189.109 49.1932C189.431 49.8598 189.592 50.678 189.592 51.6477C189.592 52.6061 189.435 53.4205 189.121 54.0909C188.806 54.7614 188.378 55.2727 187.837 55.625C187.295 55.9773 186.681 56.1534 185.996 56.1534C185.496 56.1534 185.081 56.0701 184.751 55.9034C184.422 55.7367 184.157 55.536 183.956 55.3011C183.759 55.0625 183.606 54.8371 183.496 54.625H183.411V59.2727H181.354ZM183.371 51.6364C183.371 52.2008 183.45 52.6951 183.609 53.1193C183.772 53.5436 184.005 53.875 184.308 54.1136C184.615 54.3485 184.986 54.4659 185.422 54.4659C185.876 54.4659 186.257 54.3447 186.564 54.1023C186.871 53.8561 187.102 53.5208 187.257 53.0966C187.416 52.6686 187.496 52.1818 187.496 51.6364C187.496 51.0947 187.418 50.6136 187.263 50.1932C187.107 49.7727 186.876 49.4432 186.57 49.2045C186.263 48.9659 185.88 48.8466 185.422 48.8466C184.982 48.8466 184.609 48.9621 184.303 49.1932C183.996 49.4242 183.763 49.7481 183.604 50.1648C183.448 50.5814 183.371 51.072 183.371 51.6364Z" fill="black"/>
</svg>
