<svg width="213" height="81" viewBox="0 0 213 81" fill="none" xmlns="http://www.w3.org/2000/svg">
<rect width="213" height="81" rx="15" fill="white"/>
<path d="M37.9588 35V26.2727H41.0696C41.7486 26.2727 42.3111 26.3963 42.7571 26.6435C43.2031 26.8906 43.5369 27.2287 43.7585 27.6577C43.9801 28.0838 44.0909 28.5639 44.0909 29.098C44.0909 29.6349 43.9787 30.1179 43.7543 30.5469C43.5327 30.973 43.1974 31.3111 42.7486 31.5611C42.3026 31.8082 41.7415 31.9318 41.0653 31.9318H38.9261V30.8153H40.946C41.375 30.8153 41.723 30.7415 41.9901 30.5938C42.2571 30.4432 42.4531 30.2386 42.5781 29.9801C42.7031 29.7216 42.7656 29.4276 42.7656 29.098C42.7656 28.7685 42.7031 28.4759 42.5781 28.2202C42.4531 27.9645 42.2557 27.7642 41.9858 27.6193C41.7188 27.4744 41.3665 27.402 40.929 27.402H39.2756V35H37.9588ZM48.2713 35.1321C47.6264 35.1321 47.071 34.9943 46.6051 34.7188C46.142 34.4403 45.7841 34.0497 45.5312 33.5469C45.2812 33.0412 45.1562 32.4489 45.1562 31.7699C45.1562 31.0994 45.2812 30.5085 45.5312 29.9972C45.7841 29.4858 46.1364 29.0866 46.5881 28.7997C47.0426 28.5128 47.5739 28.3693 48.1818 28.3693C48.5511 28.3693 48.9091 28.4304 49.2557 28.5526C49.6023 28.6747 49.9134 28.8665 50.1889 29.1278C50.4645 29.3892 50.6818 29.7287 50.8409 30.1463C51 30.5611 51.0795 31.0653 51.0795 31.6591V32.1108H45.8764V31.1562H49.831C49.831 30.821 49.7628 30.5241 49.6264 30.2656C49.4901 30.0043 49.2983 29.7983 49.0511 29.6477C48.8068 29.4972 48.5199 29.4219 48.1903 29.4219C47.8324 29.4219 47.5199 29.5099 47.2528 29.6861C46.9886 29.8594 46.7841 30.0866 46.6392 30.3679C46.4972 30.6463 46.4261 30.9489 46.4261 31.2756V32.0213C46.4261 32.4588 46.5028 32.831 46.6562 33.1378C46.8125 33.4446 47.0298 33.679 47.3082 33.8409C47.5866 34 47.9119 34.0795 48.2841 34.0795C48.5256 34.0795 48.7457 34.0455 48.9446 33.9773C49.1435 33.9062 49.3153 33.8011 49.4602 33.6619C49.6051 33.5227 49.7159 33.3509 49.7926 33.1463L50.9986 33.3636C50.902 33.7187 50.7287 34.0298 50.4787 34.2969C50.2315 34.5611 49.9205 34.767 49.5455 34.9148C49.1733 35.0597 48.7486 35.1321 48.2713 35.1321ZM52.4933 35V28.4545H53.7248V29.4943H53.793C53.9123 29.142 54.1225 28.8651 54.4237 28.6634C54.7276 28.4588 55.0714 28.3565 55.4549 28.3565C55.5344 28.3565 55.6282 28.3594 55.7362 28.3651C55.8469 28.3707 55.9336 28.3778 55.9961 28.3864V29.6051C55.945 29.5909 55.854 29.5753 55.7234 29.5582C55.5927 29.5384 55.462 29.5284 55.3313 29.5284C55.0302 29.5284 54.7617 29.5923 54.5259 29.7202C54.293 29.8452 54.1083 30.0199 53.9719 30.2443C53.8356 30.4659 53.7674 30.7187 53.7674 31.0028V35H52.4933ZM57.0987 28.4545H58.3729V35.4261C58.3729 35.8636 58.2933 36.233 58.1342 36.5341C57.978 36.8352 57.745 37.0639 57.4354 37.2202C57.1286 37.3764 56.7493 37.4545 56.2976 37.4545C56.2521 37.4545 56.2095 37.4545 56.1697 37.4545C56.1271 37.4545 56.0831 37.4531 56.0376 37.4503V36.3551C56.0774 36.3551 56.1129 36.3551 56.1442 36.3551C56.1726 36.3551 56.2053 36.3551 56.2422 36.3551C56.5433 36.3551 56.7607 36.2741 56.8942 36.1122C57.0305 35.9531 57.0987 35.7216 57.0987 35.4176V28.4545ZM57.7294 27.4446C57.5078 27.4446 57.3175 27.3707 57.1584 27.223C57.0021 27.0724 56.924 26.8935 56.924 26.6861C56.924 26.4759 57.0021 26.2969 57.1584 26.1491C57.3175 25.9986 57.5078 25.9233 57.7294 25.9233C57.951 25.9233 58.1399 25.9986 58.2962 26.1491C58.4553 26.2969 58.5348 26.4759 58.5348 26.6861C58.5348 26.8935 58.4553 27.0724 58.2962 27.223C58.1399 27.3707 57.951 27.4446 57.7294 27.4446ZM61.9918 35.1449C61.5771 35.1449 61.2021 35.0682 60.8668 34.9148C60.5316 34.7585 60.266 34.5327 60.07 34.2372C59.8768 33.9418 59.7802 33.5795 59.7802 33.1506C59.7802 32.7812 59.8512 32.4773 59.9933 32.2386C60.1353 32 60.3271 31.8111 60.5685 31.6719C60.81 31.5327 61.0799 31.4276 61.3782 31.3565C61.6765 31.2855 61.9805 31.2315 62.2901 31.1946C62.6822 31.1491 63.0004 31.1122 63.2447 31.0838C63.489 31.0526 63.6665 31.0028 63.7773 30.9347C63.8881 30.8665 63.9435 30.7557 63.9435 30.6023V30.5724C63.9435 30.2003 63.8384 29.9119 63.6282 29.7074C63.4208 29.5028 63.1112 29.4006 62.6992 29.4006C62.2702 29.4006 61.9322 29.4957 61.685 29.6861C61.4407 29.8736 61.2717 30.0824 61.1779 30.3125L59.9805 30.0398C60.1225 29.642 60.3299 29.321 60.6026 29.0767C60.8782 28.8295 61.195 28.6506 61.5529 28.5398C61.9109 28.4261 62.2873 28.3693 62.6822 28.3693C62.9435 28.3693 63.2205 28.4006 63.5131 28.4631C63.8086 28.5227 64.0842 28.6335 64.3398 28.7955C64.5984 28.9574 64.81 29.1889 64.9748 29.4901C65.1396 29.7884 65.2219 30.1761 65.2219 30.6534V35H63.9776V34.1051H63.9265C63.8441 34.2699 63.7205 34.4318 63.5558 34.5909C63.391 34.75 63.1793 34.8821 62.9208 34.9872C62.6623 35.0923 62.3526 35.1449 61.9918 35.1449ZM62.2688 34.1222C62.6211 34.1222 62.9222 34.0526 63.1722 33.9134C63.4251 33.7741 63.6168 33.5923 63.7475 33.3679C63.881 33.1406 63.9478 32.8977 63.9478 32.6392V31.7955C63.9023 31.8409 63.8143 31.8835 63.6836 31.9233C63.5558 31.9602 63.4094 31.9929 63.2447 32.0213C63.0799 32.0469 62.9194 32.071 62.7631 32.0938C62.6069 32.1136 62.4762 32.1307 62.3711 32.1449C62.1239 32.1761 61.8981 32.2287 61.6935 32.3026C61.4918 32.3764 61.3299 32.483 61.2077 32.6222C61.0884 32.7585 61.0288 32.9403 61.0288 33.1676C61.0288 33.483 61.1452 33.7216 61.3782 33.8835C61.6112 34.0426 61.908 34.1222 62.2688 34.1222ZM68.1932 26.2727V35H66.919V26.2727H68.1932ZM71.8121 35.1449C71.3974 35.1449 71.0224 35.0682 70.6871 34.9148C70.3519 34.7585 70.0863 34.5327 69.8903 34.2372C69.6971 33.9418 69.6005 33.5795 69.6005 33.1506C69.6005 32.7812 69.6715 32.4773 69.8136 32.2386C69.9556 32 70.1474 31.8111 70.3888 31.6719C70.6303 31.5327 70.9002 31.4276 71.1985 31.3565C71.4968 31.2855 71.8008 31.2315 72.1104 31.1946C72.5025 31.1491 72.8207 31.1122 73.065 31.0838C73.3093 31.0526 73.4869 31.0028 73.5977 30.9347C73.7085 30.8665 73.7638 30.7557 73.7638 30.6023V30.5724C73.7638 30.2003 73.6587 29.9119 73.4485 29.7074C73.2411 29.5028 72.9315 29.4006 72.5195 29.4006C72.0906 29.4006 71.7525 29.4957 71.5053 29.6861C71.261 29.8736 71.092 30.0824 70.9982 30.3125L69.8008 30.0398C69.9428 29.642 70.1502 29.321 70.4229 29.0767C70.6985 28.8295 71.0153 28.6506 71.3732 28.5398C71.7312 28.4261 72.1076 28.3693 72.5025 28.3693C72.7638 28.3693 73.0408 28.4006 73.3335 28.4631C73.6289 28.5227 73.9045 28.6335 74.1602 28.7955C74.4187 28.9574 74.6303 29.1889 74.7951 29.4901C74.9599 29.7884 75.0423 30.1761 75.0423 30.6534V35H73.7979V34.1051H73.7468C73.6644 34.2699 73.5408 34.4318 73.3761 34.5909C73.2113 34.75 72.9996 34.8821 72.7411 34.9872C72.4826 35.0923 72.1729 35.1449 71.8121 35.1449ZM72.0891 34.1222C72.4414 34.1222 72.7425 34.0526 72.9925 33.9134C73.2454 33.7741 73.4371 33.5923 73.5678 33.3679C73.7013 33.1406 73.7681 32.8977 73.7681 32.6392V31.7955C73.7227 31.8409 73.6346 31.8835 73.5039 31.9233C73.3761 31.9602 73.2298 31.9929 73.065 32.0213C72.9002 32.0469 72.7397 32.071 72.5835 32.0938C72.4272 32.1136 72.2965 32.1307 72.1914 32.1449C71.9442 32.1761 71.7184 32.2287 71.5138 32.3026C71.3121 32.3764 71.1502 32.483 71.0281 32.6222C70.9087 32.7585 70.8491 32.9403 70.8491 33.1676C70.8491 33.483 70.9656 33.7216 71.1985 33.8835C71.4315 34.0426 71.7283 34.1222 72.0891 34.1222ZM78.0135 31.1136V35H76.7393V28.4545H77.9624V29.5199H78.0433C78.1939 29.1733 78.4297 28.8949 78.7507 28.6847C79.0746 28.4744 79.4822 28.3693 79.9737 28.3693C80.4197 28.3693 80.8104 28.4631 81.1456 28.6506C81.4808 28.8352 81.7408 29.1108 81.9254 29.4773C82.1101 29.8437 82.2024 30.2969 82.2024 30.8366V35H80.9283V30.9901C80.9283 30.5156 80.8047 30.1449 80.5575 29.8778C80.3104 29.608 79.9709 29.473 79.5391 29.473C79.2436 29.473 78.9808 29.5369 78.7507 29.6648C78.5234 29.7926 78.343 29.9801 78.2095 30.2273C78.0788 30.4716 78.0135 30.767 78.0135 31.1136ZM85.8161 35.1449C85.4013 35.1449 85.0263 35.0682 84.6911 34.9148C84.3558 34.7585 84.0902 34.5327 83.8942 34.2372C83.701 33.9418 83.6044 33.5795 83.6044 33.1506C83.6044 32.7812 83.6754 32.4773 83.8175 32.2386C83.9595 32 84.1513 31.8111 84.3928 31.6719C84.6342 31.5327 84.9041 31.4276 85.2024 31.3565C85.5007 31.2855 85.8047 31.2315 86.1143 31.1946C86.5064 31.1491 86.8246 31.1122 87.0689 31.0838C87.3132 31.0526 87.4908 31.0028 87.6016 30.9347C87.7124 30.8665 87.7678 30.7557 87.7678 30.6023V30.5724C87.7678 30.2003 87.6626 29.9119 87.4524 29.7074C87.245 29.5028 86.9354 29.4006 86.5234 29.4006C86.0945 29.4006 85.7564 29.4957 85.5092 29.6861C85.2649 29.8736 85.0959 30.0824 85.0021 30.3125L83.8047 30.0398C83.9467 29.642 84.1541 29.321 84.4268 29.0767C84.7024 28.8295 85.0192 28.6506 85.3771 28.5398C85.7351 28.4261 86.1115 28.3693 86.5064 28.3693C86.7678 28.3693 87.0447 28.4006 87.3374 28.4631C87.6328 28.5227 87.9084 28.6335 88.1641 28.7955C88.4226 28.9574 88.6342 29.1889 88.799 29.4901C88.9638 29.7884 89.0462 30.1761 89.0462 30.6534V35H87.8018V34.1051H87.7507C87.6683 34.2699 87.5447 34.4318 87.38 34.5909C87.2152 34.75 87.0036 34.8821 86.745 34.9872C86.4865 35.0923 86.1768 35.1449 85.8161 35.1449ZM86.093 34.1222C86.4453 34.1222 86.7464 34.0526 86.9964 33.9134C87.2493 33.7741 87.4411 33.5923 87.5717 33.3679C87.7053 33.1406 87.772 32.8977 87.772 32.6392V31.7955C87.7266 31.8409 87.6385 31.8835 87.5078 31.9233C87.38 31.9602 87.2337 31.9929 87.0689 32.0213C86.9041 32.0469 86.7436 32.071 86.5874 32.0938C86.4311 32.1136 86.3004 32.1307 86.1953 32.1449C85.9482 32.1761 85.7223 32.2287 85.5178 32.3026C85.3161 32.3764 85.1541 32.483 85.032 32.6222C84.9126 32.7585 84.853 32.9403 84.853 33.1676C84.853 33.483 84.9695 33.7216 85.2024 33.8835C85.4354 34.0426 85.7322 34.1222 86.093 34.1222ZM92.0174 31.1136V35H90.7433V28.4545H91.9663V29.5199H92.0472C92.1978 29.1733 92.4336 28.8949 92.7546 28.6847C93.0785 28.4744 93.4862 28.3693 93.9776 28.3693C94.4237 28.3693 94.8143 28.4631 95.1495 28.6506C95.4847 28.8352 95.7447 29.1108 95.9293 29.4773C96.114 29.8437 96.2063 30.2969 96.2063 30.8366V35H94.9322V30.9901C94.9322 30.5156 94.8086 30.1449 94.5614 29.8778C94.3143 29.608 93.9748 29.473 93.543 29.473C93.2475 29.473 92.9847 29.5369 92.7546 29.6648C92.5273 29.7926 92.3469 29.9801 92.2134 30.2273C92.0827 30.4716 92.0174 30.767 92.0174 31.1136ZM101.193 26.2727H102.791L105.57 33.0568H105.672L108.45 26.2727H110.048V35H108.795V28.6847H108.714L106.141 34.9872H105.101L102.527 28.6804H102.446V35H101.193V26.2727ZM114.681 35.1321C114.037 35.1321 113.481 34.9943 113.015 34.7188C112.552 34.4403 112.194 34.0497 111.941 33.5469C111.691 33.0412 111.566 32.4489 111.566 31.7699C111.566 31.0994 111.691 30.5085 111.941 29.9972C112.194 29.4858 112.547 29.0866 112.998 28.7997C113.453 28.5128 113.984 28.3693 114.592 28.3693C114.961 28.3693 115.319 28.4304 115.666 28.5526C116.012 28.6747 116.324 28.8665 116.599 29.1278C116.875 29.3892 117.092 29.7287 117.251 30.1463C117.41 30.5611 117.49 31.0653 117.49 31.6591V32.1108H112.287V31.1562H116.241C116.241 30.821 116.173 30.5241 116.037 30.2656C115.9 30.0043 115.708 29.7983 115.461 29.6477C115.217 29.4972 114.93 29.4219 114.6 29.4219C114.243 29.4219 113.93 29.5099 113.663 29.6861C113.399 29.8594 113.194 30.0866 113.049 30.3679C112.907 30.6463 112.836 30.9489 112.836 31.2756V32.0213C112.836 32.4588 112.913 32.831 113.066 33.1378C113.223 33.4446 113.44 33.679 113.718 33.8409C113.997 34 114.322 34.0795 114.694 34.0795C114.936 34.0795 115.156 34.0455 115.355 33.9773C115.554 33.9062 115.725 33.8011 115.87 33.6619C116.015 33.5227 116.126 33.3509 116.203 33.1463L117.409 33.3636C117.312 33.7187 117.139 34.0298 116.889 34.2969C116.642 34.5611 116.331 34.767 115.956 34.9148C115.583 35.0597 115.159 35.1321 114.681 35.1321ZM120.178 31.1136V35H118.903V28.4545H120.126V29.5199H120.207C120.358 29.1733 120.594 28.8949 120.915 28.6847C121.239 28.4744 121.646 28.3693 122.138 28.3693C122.584 28.3693 122.974 28.4631 123.31 28.6506C123.645 28.8352 123.905 29.1108 124.089 29.4773C124.274 29.8437 124.366 30.2969 124.366 30.8366V35H123.092V30.9901C123.092 30.5156 122.969 30.1449 122.722 29.8778C122.474 29.608 122.135 29.473 121.703 29.473C121.408 29.473 121.145 29.5369 120.915 29.6648C120.688 29.7926 120.507 29.9801 120.374 30.2273C120.243 30.4716 120.178 30.767 120.178 31.1136ZM130.222 32.2855V28.4545H131.5V35H130.247V33.8665H130.179C130.028 34.2159 129.787 34.5071 129.455 34.7401C129.125 34.9702 128.714 35.0852 128.223 35.0852C127.803 35.0852 127.43 34.9929 127.107 34.8082C126.786 34.6207 126.533 34.3438 126.348 33.9773C126.166 33.6108 126.075 33.1577 126.075 32.6179V28.4545H127.349V32.4645C127.349 32.9105 127.473 33.2656 127.72 33.5298C127.967 33.794 128.288 33.9261 128.683 33.9261C128.922 33.9261 129.159 33.8665 129.395 33.7472C129.634 33.6278 129.831 33.4474 129.987 33.206C130.146 32.9645 130.224 32.6577 130.222 32.2855ZM133.212 28.4545H134.486V35.4261C134.486 35.8636 134.407 36.233 134.248 36.5341C134.091 36.8352 133.858 37.0639 133.549 37.2202C133.242 37.3764 132.863 37.4545 132.411 37.4545C132.365 37.4545 132.323 37.4545 132.283 37.4545C132.24 37.4545 132.196 37.4531 132.151 37.4503V36.3551C132.191 36.3551 132.226 36.3551 132.257 36.3551C132.286 36.3551 132.319 36.3551 132.355 36.3551C132.657 36.3551 132.874 36.2741 133.007 36.1122C133.144 35.9531 133.212 35.7216 133.212 35.4176V28.4545ZM133.843 27.4446C133.621 27.4446 133.431 27.3707 133.272 27.223C133.115 27.0724 133.037 26.8935 133.037 26.6861C133.037 26.4759 133.115 26.2969 133.272 26.1491C133.431 25.9986 133.621 25.9233 133.843 25.9233C134.064 25.9233 134.253 25.9986 134.409 26.1491C134.569 26.2969 134.648 26.4759 134.648 26.6861C134.648 26.8935 134.569 27.0724 134.409 27.223C134.253 27.3707 134.064 27.4446 133.843 27.4446ZM140.347 32.2855V28.4545H141.625V35H140.372V33.8665H140.304C140.153 34.2159 139.912 34.5071 139.58 34.7401C139.25 34.9702 138.839 35.0852 138.348 35.0852C137.928 35.0852 137.555 34.9929 137.232 34.8082C136.911 34.6207 136.658 34.3438 136.473 33.9773C136.291 33.6108 136.2 33.1577 136.2 32.6179V28.4545H137.474V32.4645C137.474 32.9105 137.598 33.2656 137.845 33.5298C138.092 33.794 138.413 33.9261 138.808 33.9261C139.047 33.9261 139.284 33.8665 139.52 33.7472C139.759 33.6278 139.956 33.4474 140.112 33.206C140.271 32.9645 140.349 32.6577 140.347 32.2855ZM147.352 35H145.955L149.095 26.2727H150.616L153.757 35H152.359L149.892 27.858H149.824L147.352 35ZM147.587 31.5824H152.121V32.6903H147.587V31.5824ZM156.189 26.2727V35H154.915V26.2727H156.189ZM161.76 30.7599V31.8636H157.891V30.7599H161.76ZM166.769 32.1705H168.065L168.977 33.3594L169.407 33.8878L170.86 35.7841H169.513L168.542 34.5185L168.21 34.0582L166.769 32.1705ZM171.141 30.6364C171.141 31.5682 170.971 32.3693 170.63 33.0398C170.289 33.7074 169.822 34.2216 169.228 34.5824C168.637 34.9403 167.965 35.1193 167.212 35.1193C166.457 35.1193 165.782 34.9403 165.188 34.5824C164.597 34.2216 164.131 33.706 163.79 33.0355C163.45 32.3651 163.279 31.5653 163.279 30.6364C163.279 29.7045 163.45 28.9048 163.79 28.2372C164.131 27.5668 164.597 27.0526 165.188 26.6946C165.782 26.3338 166.457 26.1534 167.212 26.1534C167.965 26.1534 168.637 26.3338 169.228 26.6946C169.822 27.0526 170.289 27.5668 170.63 28.2372C170.971 28.9048 171.141 29.7045 171.141 30.6364ZM169.837 30.6364C169.837 29.9261 169.722 29.3281 169.492 28.8423C169.265 28.3537 168.952 27.9844 168.555 27.7344C168.16 27.4815 167.712 27.3551 167.212 27.3551C166.71 27.3551 166.261 27.4815 165.866 27.7344C165.471 27.9844 165.158 28.3537 164.928 28.8423C164.701 29.3281 164.587 29.9261 164.587 30.6364C164.587 31.3466 164.701 31.946 164.928 32.4347C165.158 32.9205 165.471 33.2898 165.866 33.5426C166.261 33.7926 166.71 33.9176 167.212 33.9176C167.712 33.9176 168.16 33.7926 168.555 33.5426C168.952 33.2898 169.265 32.9205 169.492 32.4347C169.722 31.946 169.837 31.3466 169.837 30.6364ZM176.827 32.2855V28.4545H178.105V35H176.853V33.8665H176.784C176.634 34.2159 176.392 34.5071 176.06 34.7401C175.73 34.9702 175.32 35.0852 174.828 35.0852C174.408 35.0852 174.036 34.9929 173.712 34.8082C173.391 34.6207 173.138 34.3438 172.953 33.9773C172.772 33.6108 172.681 33.1577 172.681 32.6179V28.4545H173.955V32.4645C173.955 32.9105 174.078 33.2656 174.326 33.5298C174.573 33.794 174.894 33.9261 175.289 33.9261C175.527 33.9261 175.765 33.8665 176 33.7472C176.239 33.6278 176.436 33.4474 176.593 33.206C176.752 32.9645 176.83 32.6577 176.827 32.2855ZM179.817 35V28.4545H181.049V29.4943H181.117C181.237 29.142 181.447 28.8651 181.748 28.6634C182.052 28.4588 182.396 28.3565 182.779 28.3565C182.859 28.3565 182.952 28.3594 183.06 28.3651C183.171 28.3707 183.258 28.3778 183.32 28.3864V29.6051C183.269 29.5909 183.178 29.5753 183.048 29.5582C182.917 29.5384 182.786 29.5284 182.656 29.5284C182.354 29.5284 182.086 29.5923 181.85 29.7202C181.617 29.8452 181.433 30.0199 181.296 30.2443C181.16 30.4659 181.092 30.7187 181.092 31.0028V35H179.817ZM185.717 26.2727V27.0909C185.717 27.3324 185.672 27.5866 185.581 27.8537C185.493 28.1179 185.368 28.3722 185.206 28.6165C185.044 28.8608 184.854 29.071 184.635 29.2472L184.004 28.7955C184.172 28.5511 184.317 28.2912 184.439 28.0156C184.564 27.7401 184.626 27.4361 184.626 27.1037V26.2727H185.717ZM188.238 35.1449C187.823 35.1449 187.448 35.0682 187.113 34.9148C186.778 34.7585 186.512 34.5327 186.316 34.2372C186.123 33.9418 186.026 33.5795 186.026 33.1506C186.026 32.7812 186.097 32.4773 186.239 32.2386C186.381 32 186.573 31.8111 186.815 31.6719C187.056 31.5327 187.326 31.4276 187.624 31.3565C187.923 31.2855 188.227 31.2315 188.536 31.1946C188.928 31.1491 189.246 31.1122 189.491 31.0838C189.735 31.0526 189.913 31.0028 190.023 30.9347C190.134 30.8665 190.19 30.7557 190.19 30.6023V30.5724C190.19 30.2003 190.085 29.9119 189.874 29.7074C189.667 29.5028 189.357 29.4006 188.945 29.4006C188.516 29.4006 188.178 29.4957 187.931 29.6861C187.687 29.8736 187.518 30.0824 187.424 30.3125L186.227 30.0398C186.369 29.642 186.576 29.321 186.849 29.0767C187.124 28.8295 187.441 28.6506 187.799 28.5398C188.157 28.4261 188.533 28.3693 188.928 28.3693C189.19 28.3693 189.467 28.4006 189.759 28.4631C190.055 28.5227 190.33 28.6335 190.586 28.7955C190.844 28.9574 191.056 29.1889 191.221 29.4901C191.386 29.7884 191.468 30.1761 191.468 30.6534V35H190.224V34.1051H190.173C190.09 34.2699 189.967 34.4318 189.802 34.5909C189.637 34.75 189.425 34.8821 189.167 34.9872C188.908 35.0923 188.599 35.1449 188.238 35.1449ZM188.515 34.1222C188.867 34.1222 189.168 34.0526 189.418 33.9134C189.671 33.7741 189.863 33.5923 189.994 33.3679C190.127 33.1406 190.194 32.8977 190.194 32.6392V31.7955C190.148 31.8409 190.06 31.8835 189.93 31.9233C189.802 31.9602 189.656 31.9929 189.491 32.0213C189.326 32.0469 189.165 32.071 189.009 32.0938C188.853 32.1136 188.722 32.1307 188.617 32.1449C188.37 32.1761 188.144 32.2287 187.94 32.3026C187.738 32.3764 187.576 32.483 187.454 32.6222C187.335 32.7585 187.275 32.9403 187.275 33.1676C187.275 33.483 187.391 33.7216 187.624 33.8835C187.857 34.0426 188.154 34.1222 188.515 34.1222ZM194.439 31.1136V35H193.165V28.4545H194.388V29.5199H194.469C194.62 29.1733 194.855 28.8949 195.176 28.6847C195.5 28.4744 195.908 28.3693 196.4 28.3693C196.846 28.3693 197.236 28.4631 197.571 28.6506C197.907 28.8352 198.167 29.1108 198.351 29.4773C198.536 29.8437 198.628 30.2969 198.628 30.8366V35H197.354V30.9901C197.354 30.5156 197.23 30.1449 196.983 29.8778C196.736 29.608 196.397 29.473 195.965 29.473C195.669 29.473 195.407 29.5369 195.176 29.6648C194.949 29.7926 194.769 29.9801 194.635 30.2273C194.505 30.4716 194.439 30.767 194.439 31.1136Z" fill="#A5A5B0"/>
<path d="M41.4545 56H38.0043V45.8182H41.5241C42.535 45.8182 43.4034 46.022 44.1293 46.4297C44.8584 46.834 45.4186 47.4157 45.8097 48.1747C46.2008 48.9337 46.3963 49.8419 46.3963 50.8991C46.3963 51.9598 46.1991 52.8712 45.8047 53.6335C45.4136 54.3958 44.8485 54.9808 44.1094 55.3885C43.3736 55.7962 42.4886 56 41.4545 56ZM39.8487 54.4041H41.3651C42.0743 54.4041 42.666 54.2749 43.1399 54.0163C43.6139 53.7545 43.9702 53.3651 44.2088 52.848C44.4474 52.3277 44.5668 51.678 44.5668 50.8991C44.5668 50.1203 44.4474 49.474 44.2088 48.9602C43.9702 48.4432 43.6172 48.0571 43.1499 47.8018C42.6858 47.5433 42.1091 47.4141 41.4197 47.4141H39.8487V54.4041ZM50.2667 56.1541C49.7828 56.1541 49.3469 56.0679 48.9592 55.8956C48.5747 55.7199 48.2698 55.4614 48.0444 55.12C47.8223 54.7786 47.7113 54.3577 47.7113 53.8572C47.7113 53.4264 47.7908 53.0701 47.9499 52.7884C48.109 52.5066 48.3261 52.2812 48.6012 52.1122C48.8763 51.9432 49.1862 51.8156 49.5309 51.7294C49.8789 51.6399 50.2385 51.5753 50.6097 51.5355C51.0572 51.4891 51.4201 51.4477 51.6985 51.4112C51.9769 51.3714 52.1791 51.3118 52.305 51.2322C52.4343 51.1494 52.4989 51.0218 52.4989 50.8494V50.8196C52.4989 50.4451 52.3879 50.1551 52.1658 49.9496C51.9438 49.7441 51.6239 49.6413 51.2063 49.6413C50.7655 49.6413 50.4158 49.7375 50.1573 49.9297C49.9021 50.1219 49.7298 50.349 49.6403 50.6108L47.9599 50.3722C48.0924 49.9081 48.3112 49.5204 48.6161 49.2088C48.921 48.8939 49.2939 48.6586 49.7347 48.5028C50.1755 48.3438 50.6628 48.2642 51.1964 48.2642C51.5643 48.2642 51.9305 48.3073 52.2951 48.3935C52.6597 48.4796 52.9928 48.6222 53.2944 48.821C53.596 49.0166 53.838 49.2834 54.0202 49.6214C54.2058 49.9595 54.2987 50.3821 54.2987 50.8892V56H52.5685V54.951H52.5089C52.3995 55.1631 52.2454 55.362 52.0465 55.5476C51.851 55.7299 51.604 55.8774 51.3058 55.9901C51.0108 56.0994 50.6644 56.1541 50.2667 56.1541ZM50.734 54.8317C51.0953 54.8317 51.4085 54.7604 51.6737 54.6179C51.9388 54.4721 52.1426 54.2798 52.2852 54.0412C52.431 53.8026 52.5039 53.5424 52.5039 53.2607V52.3608C52.4476 52.4072 52.3514 52.4503 52.2156 52.4901C52.083 52.5298 51.9338 52.5646 51.7681 52.5945C51.6024 52.6243 51.4383 52.6508 51.2759 52.674C51.1135 52.6972 50.9727 52.7171 50.8533 52.7337C50.5849 52.7701 50.3446 52.8298 50.1325 52.9126C49.9203 52.9955 49.753 53.1115 49.6303 53.2607C49.5077 53.4065 49.4464 53.5954 49.4464 53.8274C49.4464 54.1589 49.5674 54.4091 49.8093 54.5781C50.0513 54.7472 50.3595 54.8317 50.734 54.8317ZM56.1083 56V48.3636H57.8533V49.6364H57.9329C58.0721 49.1955 58.3107 48.8558 58.6488 48.6172C58.9902 48.3752 59.3796 48.2543 59.8171 48.2543C59.9165 48.2543 60.0276 48.2592 60.1502 48.2692C60.2762 48.2758 60.3806 48.2874 60.4634 48.304V49.9595C60.3872 49.933 60.2662 49.9098 60.1005 49.8899C59.9381 49.8667 59.7807 49.8551 59.6282 49.8551C59.3001 49.8551 59.0051 49.9264 58.7433 50.0689C58.4847 50.2081 58.2809 50.402 58.1317 50.6506C57.9826 50.8991 57.908 51.1858 57.908 51.5107V56H56.1083ZM61.6591 56V48.3636H63.4588V56H61.6591ZM62.5639 47.2798C62.2789 47.2798 62.0336 47.1854 61.8281 46.9964C61.6226 46.8042 61.5199 46.5739 61.5199 46.3054C61.5199 46.0336 61.6226 45.8033 61.8281 45.6143C62.0336 45.4221 62.2789 45.326 62.5639 45.326C62.8523 45.326 63.0975 45.4221 63.2997 45.6143C63.5052 45.8033 63.608 46.0336 63.608 46.3054C63.608 46.5739 63.5052 46.8042 63.2997 46.9964C63.0975 47.1854 62.8523 47.2798 62.5639 47.2798ZM70.7061 45.8182V56H68.8617V45.8182H70.7061ZM77.7198 58.8636V54.7969H77.6452C77.5524 54.9825 77.4182 55.1797 77.2425 55.3885C77.0669 55.594 76.8349 55.7696 76.5465 55.9155C76.2582 56.0613 75.8952 56.1342 75.4577 56.1342C74.8578 56.1342 74.3209 55.9801 73.8469 55.6719C73.373 55.3636 72.9985 54.9162 72.7234 54.3295C72.4483 53.7429 72.3107 53.0303 72.3107 52.1918C72.3107 51.3433 72.4499 50.6274 72.7283 50.044C73.0101 49.4574 73.3896 49.0149 73.8668 48.7166C74.3441 48.415 74.8761 48.2642 75.4627 48.2642C75.9102 48.2642 76.2781 48.3404 76.5664 48.4929C76.8548 48.642 77.0835 48.8227 77.2525 49.0348C77.4215 49.2436 77.5524 49.4408 77.6452 49.6264H77.7546V48.3636H79.5245V58.8636H77.7198ZM75.9599 54.6577C76.341 54.6577 76.6658 54.5549 76.9343 54.3494C77.2028 54.1406 77.4066 53.8506 77.5458 53.4794C77.685 53.1082 77.7546 52.6757 77.7546 52.1818C77.7546 51.688 77.685 51.2588 77.5458 50.8942C77.4099 50.5296 77.2077 50.2462 76.9393 50.044C76.6741 49.8419 76.3477 49.7408 75.9599 49.7408C75.5588 49.7408 75.2241 49.8452 74.9556 50.054C74.6871 50.2628 74.485 50.5511 74.3491 50.919C74.2132 51.2869 74.1452 51.7079 74.1452 52.1818C74.1452 52.6591 74.2132 53.085 74.3491 53.4595C74.4883 53.8307 74.6921 54.1241 74.9606 54.3395C75.2324 54.5516 75.5655 54.6577 75.9599 54.6577ZM81.3739 56V48.3636H83.119V49.6364H83.1985C83.3377 49.1955 83.5763 48.8558 83.9144 48.6172C84.2558 48.3752 84.6452 48.2543 85.0827 48.2543C85.1822 48.2543 85.2932 48.2592 85.4158 48.2692C85.5418 48.2758 85.6462 48.2874 85.729 48.304V49.9595C85.6528 49.933 85.5318 49.9098 85.3661 49.8899C85.2037 49.8667 85.0463 49.8551 84.8938 49.8551C84.5657 49.8551 84.2707 49.9264 84.0089 50.0689C83.7504 50.2081 83.5465 50.402 83.3974 50.6506C83.2482 50.8991 83.1737 51.1858 83.1737 51.5107V56H81.3739ZM88.9854 56.1541C88.5015 56.1541 88.0657 56.0679 87.6779 55.8956C87.2934 55.7199 86.9885 55.4614 86.7631 55.12C86.5411 54.7786 86.43 54.3577 86.43 53.8572C86.43 53.4264 86.5096 53.0701 86.6687 52.7884C86.8278 52.5066 87.0449 52.2812 87.32 52.1122C87.5951 51.9432 87.9049 51.8156 88.2496 51.7294C88.5977 51.6399 88.9573 51.5753 89.3285 51.5355C89.7759 51.4891 90.1388 51.4477 90.4173 51.4112C90.6957 51.3714 90.8978 51.3118 91.0238 51.2322C91.1531 51.1494 91.2177 51.0218 91.2177 50.8494V50.8196C91.2177 50.4451 91.1067 50.1551 90.8846 49.9496C90.6625 49.7441 90.3427 49.6413 89.9251 49.6413C89.4843 49.6413 89.1346 49.7375 88.8761 49.9297C88.6209 50.1219 88.4485 50.349 88.359 50.6108L86.6786 50.3722C86.8112 49.9081 87.0299 49.5204 87.3349 49.2088C87.6398 48.8939 88.0127 48.6586 88.4535 48.5028C88.8943 48.3438 89.3815 48.2642 89.9151 48.2642C90.283 48.2642 90.6493 48.3073 91.0138 48.3935C91.3784 48.4796 91.7115 48.6222 92.0131 48.821C92.3147 49.0166 92.5567 49.2834 92.739 49.6214C92.9246 49.9595 93.0174 50.3821 93.0174 50.8892V56H91.2873V54.951H91.2276C91.1183 55.1631 90.9641 55.362 90.7653 55.5476C90.5697 55.7299 90.3228 55.8774 90.0245 55.9901C89.7295 56.0994 89.3832 56.1541 88.9854 56.1541ZM89.4528 54.8317C89.814 54.8317 90.1272 54.7604 90.3924 54.6179C90.6576 54.4721 90.8614 54.2798 91.0039 54.0412C91.1497 53.8026 91.2227 53.5424 91.2227 53.2607V52.3608C91.1663 52.4072 91.0702 52.4503 90.9343 52.4901C90.8017 52.5298 90.6526 52.5646 90.4869 52.5945C90.3211 52.6243 90.1571 52.6508 89.9947 52.674C89.8323 52.6972 89.6914 52.7171 89.5721 52.7337C89.3036 52.7701 89.0633 52.8298 88.8512 52.9126C88.6391 52.9955 88.4717 53.1115 88.3491 53.2607C88.2264 53.4065 88.1651 53.5954 88.1651 53.8274C88.1651 54.1589 88.2861 54.4091 88.5281 54.5781C88.77 54.7472 89.0782 54.8317 89.4528 54.8317ZM100.099 51.5256V56H98.2997V45.8182H100.06V49.6612H100.149C100.328 49.2304 100.605 48.8906 100.979 48.642C101.357 48.3902 101.838 48.2642 102.421 48.2642C102.951 48.2642 103.414 48.3752 103.808 48.5973C104.203 48.8194 104.508 49.1442 104.723 49.5717C104.942 49.9993 105.051 50.5213 105.051 51.1378V56H103.251V51.4162C103.251 50.9025 103.119 50.5031 102.854 50.218C102.592 49.9297 102.224 49.7855 101.75 49.7855C101.432 49.7855 101.147 49.8551 100.895 49.9943C100.646 50.1302 100.451 50.3274 100.308 50.5859C100.169 50.8445 100.099 51.1577 100.099 51.5256ZM106.886 56V48.3636H108.685V56H106.886ZM107.79 47.2798C107.505 47.2798 107.26 47.1854 107.055 46.9964C106.849 46.8042 106.746 46.5739 106.746 46.3054C106.746 46.0336 106.849 45.8033 107.055 45.6143C107.26 45.4221 107.505 45.326 107.79 45.326C108.079 45.326 108.324 45.4221 108.526 45.6143C108.732 45.8033 108.835 46.0336 108.835 46.3054C108.835 46.5739 108.732 46.8042 108.526 46.9964C108.324 47.1854 108.079 47.2798 107.79 47.2798ZM112.336 51.5256V56H110.536V48.3636H112.256V49.6612H112.346C112.521 49.2337 112.801 48.8939 113.186 48.642C113.574 48.3902 114.053 48.2642 114.623 48.2642C115.15 48.2642 115.609 48.3769 116 48.6023C116.394 48.8277 116.699 49.1541 116.915 49.5817C117.133 50.0092 117.241 50.5279 117.238 51.1378V56H115.438V51.4162C115.438 50.9058 115.305 50.5064 115.04 50.218C114.778 49.9297 114.416 49.7855 113.952 49.7855C113.637 49.7855 113.357 49.8551 113.111 49.9943C112.869 50.1302 112.679 50.3274 112.54 50.5859C112.404 50.8445 112.336 51.1577 112.336 51.5256ZM122.388 59.0227C121.742 59.0227 121.187 58.9349 120.723 58.7592C120.259 58.5869 119.886 58.3549 119.604 58.0632C119.323 57.7715 119.127 57.4484 119.018 57.0938L120.638 56.701C120.711 56.8501 120.817 56.9976 120.956 57.1435C121.096 57.2926 121.283 57.4152 121.518 57.5114C121.757 57.6108 122.057 57.6605 122.418 57.6605C122.929 57.6605 123.351 57.5362 123.686 57.2876C124.021 57.0424 124.188 56.638 124.188 56.0746V54.6278H124.099C124.006 54.8134 123.87 55.004 123.691 55.1996C123.515 55.3951 123.282 55.5592 122.99 55.6918C122.702 55.8243 122.339 55.8906 121.901 55.8906C121.314 55.8906 120.782 55.7531 120.305 55.478C119.831 55.1996 119.453 54.7853 119.172 54.2351C118.893 53.6816 118.754 52.9889 118.754 52.157C118.754 51.3184 118.893 50.6108 119.172 50.0341C119.453 49.4541 119.833 49.0149 120.31 48.7166C120.787 48.415 121.319 48.2642 121.906 48.2642C122.354 48.2642 122.721 48.3404 123.01 48.4929C123.301 48.642 123.533 48.8227 123.706 49.0348C123.878 49.2436 124.009 49.4408 124.099 49.6264H124.198V48.3636H125.973V56.1243C125.973 56.7772 125.817 57.3175 125.506 57.745C125.194 58.1726 124.768 58.4924 124.228 58.7045C123.688 58.9167 123.074 59.0227 122.388 59.0227ZM122.403 54.4787C122.784 54.4787 123.109 54.3859 123.378 54.2003C123.646 54.0147 123.85 53.7479 123.989 53.3999C124.128 53.0518 124.198 52.6342 124.198 52.147C124.198 51.6664 124.128 51.2455 123.989 50.8842C123.853 50.523 123.651 50.2429 123.383 50.044C123.117 49.8419 122.791 49.7408 122.403 49.7408C122.002 49.7408 121.667 49.8452 121.399 50.054C121.131 50.2628 120.928 50.5495 120.792 50.9141C120.657 51.2753 120.589 51.6863 120.589 52.147C120.589 52.6143 120.657 53.0237 120.792 53.375C120.932 53.723 121.135 53.9948 121.404 54.1903C121.676 54.3826 122.009 54.4787 122.403 54.4787ZM131.138 59.0227C130.492 59.0227 129.937 58.9349 129.473 58.7592C129.009 58.5869 128.636 58.3549 128.354 58.0632C128.073 57.7715 127.877 57.4484 127.768 57.0938L129.388 56.701C129.461 56.8501 129.567 56.9976 129.706 57.1435C129.846 57.2926 130.033 57.4152 130.268 57.5114C130.507 57.6108 130.807 57.6605 131.168 57.6605C131.679 57.6605 132.101 57.5362 132.436 57.2876C132.771 57.0424 132.938 56.638 132.938 56.0746V54.6278H132.849C132.756 54.8134 132.62 55.004 132.441 55.1996C132.265 55.3951 132.032 55.5592 131.74 55.6918C131.452 55.8243 131.089 55.8906 130.651 55.8906C130.064 55.8906 129.532 55.7531 129.055 55.478C128.581 55.1996 128.203 54.7853 127.922 54.2351C127.643 53.6816 127.504 52.9889 127.504 52.157C127.504 51.3184 127.643 50.6108 127.922 50.0341C128.203 49.4541 128.583 49.0149 129.06 48.7166C129.537 48.415 130.069 48.2642 130.656 48.2642C131.104 48.2642 131.471 48.3404 131.76 48.4929C132.051 48.642 132.283 48.8227 132.456 49.0348C132.628 49.2436 132.759 49.4408 132.849 49.6264H132.948V48.3636H134.723V56.1243C134.723 56.7772 134.567 57.3175 134.256 57.745C133.944 58.1726 133.518 58.4924 132.978 58.7045C132.438 58.9167 131.824 59.0227 131.138 59.0227ZM131.153 54.4787C131.534 54.4787 131.859 54.3859 132.128 54.2003C132.396 54.0147 132.6 53.7479 132.739 53.3999C132.878 53.0518 132.948 52.6342 132.948 52.147C132.948 51.6664 132.878 51.2455 132.739 50.8842C132.603 50.523 132.401 50.2429 132.133 50.044C131.867 49.8419 131.541 49.7408 131.153 49.7408C130.752 49.7408 130.417 49.8452 130.149 50.054C129.881 50.2628 129.678 50.5495 129.542 50.9141C129.407 51.2753 129.339 51.6863 129.339 52.147C129.339 52.6143 129.407 53.0237 129.542 53.375C129.682 53.723 129.885 53.9948 130.154 54.1903C130.426 54.3826 130.759 54.4787 131.153 54.4787ZM138.765 56.1541C138.281 56.1541 137.845 56.0679 137.457 55.8956C137.073 55.7199 136.768 55.4614 136.542 55.12C136.32 54.7786 136.209 54.3577 136.209 53.8572C136.209 53.4264 136.289 53.0701 136.448 52.7884C136.607 52.5066 136.824 52.2812 137.099 52.1122C137.374 51.9432 137.684 51.8156 138.029 51.7294C138.377 51.6399 138.737 51.5753 139.108 51.5355C139.555 51.4891 139.918 51.4477 140.197 51.4112C140.475 51.3714 140.677 51.3118 140.803 51.2322C140.932 51.1494 140.997 51.0218 140.997 50.8494V50.8196C140.997 50.4451 140.886 50.1551 140.664 49.9496C140.442 49.7441 140.122 49.6413 139.704 49.6413C139.264 49.6413 138.914 49.7375 138.655 49.9297C138.4 50.1219 138.228 50.349 138.138 50.6108L136.458 50.3722C136.59 49.9081 136.809 49.5204 137.114 49.2088C137.419 48.8939 137.792 48.6586 138.233 48.5028C138.674 48.3438 139.161 48.2642 139.694 48.2642C140.062 48.2642 140.429 48.3073 140.793 48.3935C141.158 48.4796 141.491 48.6222 141.792 48.821C142.094 49.0166 142.336 49.2834 142.518 49.6214C142.704 49.9595 142.797 50.3821 142.797 50.8892V56H141.067V54.951H141.007C140.898 55.1631 140.743 55.362 140.545 55.5476C140.349 55.7299 140.102 55.8774 139.804 55.9901C139.509 56.0994 139.162 56.1541 138.765 56.1541ZM139.232 54.8317C139.593 54.8317 139.907 54.7604 140.172 54.6179C140.437 54.4721 140.641 54.2798 140.783 54.0412C140.929 53.8026 141.002 53.5424 141.002 53.2607V52.3608C140.946 52.4072 140.849 52.4503 140.714 52.4901C140.581 52.5298 140.432 52.5646 140.266 52.5945C140.1 52.6243 139.936 52.6508 139.774 52.674C139.612 52.6972 139.471 52.7171 139.351 52.7337C139.083 52.7701 138.843 52.8298 138.631 52.9126C138.418 52.9955 138.251 53.1115 138.128 53.2607C138.006 53.4065 137.944 53.5954 137.944 53.8274C137.944 54.1589 138.065 54.4091 138.307 54.5781C138.549 54.7472 138.858 54.8317 139.232 54.8317ZM147.711 47.3643V45.8182H155.835V47.3643H152.688V56H150.858V47.3643H147.711ZM158.48 56.1541C157.996 56.1541 157.56 56.0679 157.172 55.8956C156.788 55.7199 156.483 55.4614 156.257 55.12C156.035 54.7786 155.924 54.3577 155.924 53.8572C155.924 53.4264 156.004 53.0701 156.163 52.7884C156.322 52.5066 156.539 52.2812 156.814 52.1122C157.089 51.9432 157.399 51.8156 157.744 51.7294C158.092 51.6399 158.451 51.5753 158.823 51.5355C159.27 51.4891 159.633 51.4477 159.911 51.4112C160.19 51.3714 160.392 51.3118 160.518 51.2322C160.647 51.1494 160.712 51.0218 160.712 50.8494V50.8196C160.712 50.4451 160.601 50.1551 160.379 49.9496C160.157 49.7441 159.837 49.6413 159.419 49.6413C158.978 49.6413 158.629 49.7375 158.37 49.9297C158.115 50.1219 157.943 50.349 157.853 50.6108L156.173 50.3722C156.305 49.9081 156.524 49.5204 156.829 49.2088C157.134 48.8939 157.507 48.6586 157.948 48.5028C158.388 48.3438 158.876 48.2642 159.409 48.2642C159.777 48.2642 160.143 48.3073 160.508 48.3935C160.873 48.4796 161.206 48.6222 161.507 48.821C161.809 49.0166 162.051 49.2834 162.233 49.6214C162.419 49.9595 162.512 50.3821 162.512 50.8892V56H160.781V54.951H160.722C160.612 55.1631 160.458 55.362 160.259 55.5476C160.064 55.7299 159.817 55.8774 159.519 55.9901C159.224 56.0994 158.877 56.1541 158.48 56.1541ZM158.947 54.8317C159.308 54.8317 159.621 54.7604 159.887 54.6179C160.152 54.4721 160.356 54.2798 160.498 54.0412C160.644 53.8026 160.717 53.5424 160.717 53.2607V52.3608C160.66 52.4072 160.564 52.4503 160.428 52.4901C160.296 52.5298 160.147 52.5646 159.981 52.5945C159.815 52.6243 159.651 52.6508 159.489 52.674C159.326 52.6972 159.186 52.7171 159.066 52.7337C158.798 52.7701 158.557 52.8298 158.345 52.9126C158.133 52.9955 157.966 53.1115 157.843 53.2607C157.721 53.4065 157.659 53.5954 157.659 53.8274C157.659 54.1589 157.78 54.4091 158.022 54.5781C158.264 54.7472 158.572 54.8317 158.947 54.8317ZM166.121 51.5256V56H164.321V45.8182H166.081V49.6612H166.171C166.35 49.2304 166.626 48.8906 167.001 48.642C167.379 48.3902 167.859 48.2642 168.443 48.2642C168.973 48.2642 169.435 48.3752 169.83 48.5973C170.224 48.8194 170.529 49.1442 170.744 49.5717C170.963 49.9993 171.073 50.5213 171.073 51.1378V56H169.273V51.4162C169.273 50.9025 169.14 50.5031 168.875 50.218C168.613 49.9297 168.245 49.7855 167.771 49.7855C167.453 49.7855 167.168 49.8551 166.916 49.9943C166.668 50.1302 166.472 50.3274 166.33 50.5859C166.191 50.8445 166.121 51.1577 166.121 51.5256ZM176.775 48.3636V49.7557H172.261V48.3636H176.775ZM173.389 56V47.6428C173.389 47.129 173.495 46.7015 173.708 46.3601C173.923 46.0187 174.211 45.7635 174.573 45.5945C174.934 45.4254 175.335 45.3409 175.776 45.3409C176.087 45.3409 176.364 45.3658 176.606 45.4155C176.848 45.4652 177.027 45.5099 177.143 45.5497L176.785 46.9418C176.709 46.9186 176.613 46.8954 176.497 46.8722C176.381 46.8456 176.251 46.8324 176.109 46.8324C175.774 46.8324 175.537 46.9136 175.398 47.076C175.262 47.2351 175.194 47.4638 175.194 47.7621V56H173.389ZM178.184 56V48.3636H179.984V56H178.184ZM179.089 47.2798C178.804 47.2798 178.559 47.1854 178.354 46.9964C178.148 46.8042 178.045 46.5739 178.045 46.3054C178.045 46.0336 178.148 45.8033 178.354 45.6143C178.559 45.4221 178.804 45.326 179.089 45.326C179.378 45.326 179.623 45.4221 179.825 45.6143C180.031 45.8033 180.133 46.0336 180.133 46.3054C180.133 46.5739 180.031 46.8042 179.825 46.9964C179.623 47.1854 179.378 47.2798 179.089 47.2798ZM184.669 56.1342C184.069 56.1342 183.532 55.9801 183.058 55.6719C182.584 55.3636 182.209 54.9162 181.934 54.3295C181.659 53.7429 181.522 53.0303 181.522 52.1918C181.522 51.3433 181.661 50.6274 181.939 50.044C182.221 49.4574 182.6 49.0149 183.078 48.7166C183.555 48.415 184.087 48.2642 184.674 48.2642C185.121 48.2642 185.489 48.3404 185.777 48.4929C186.066 48.642 186.294 48.8227 186.463 49.0348C186.632 49.2436 186.763 49.4408 186.856 49.6264H186.931V45.8182H188.735V56H186.966V54.7969H186.856C186.763 54.9825 186.629 55.1797 186.453 55.3885C186.278 55.594 186.046 55.7696 185.757 55.9155C185.469 56.0613 185.106 56.1342 184.669 56.1342ZM185.171 54.6577C185.552 54.6577 185.877 54.5549 186.145 54.3494C186.414 54.1406 186.618 53.8506 186.757 53.4794C186.896 53.1082 186.966 52.6757 186.966 52.1818C186.966 51.688 186.896 51.2588 186.757 50.8942C186.621 50.5296 186.419 50.2462 186.15 50.044C185.885 49.8419 185.559 49.7408 185.171 49.7408C184.77 49.7408 184.435 49.8452 184.167 50.054C183.898 50.2628 183.696 50.5511 183.56 50.919C183.424 51.2869 183.356 51.7079 183.356 52.1818C183.356 52.6591 183.424 53.085 183.56 53.4595C183.699 53.8307 183.903 54.1241 184.172 54.3395C184.443 54.5516 184.776 54.6577 185.171 54.6577ZM190.554 56V54.8565L194.491 49.9197V49.8551H190.683V48.3636H196.694V49.5916L192.945 54.4439V54.5085H196.823V56H190.554Z" fill="black"/>
<rect x="10" y="11" width="17" height="17" fill="#E1B26A"/>
</svg>
