<svg width="545" height="559" viewBox="0 0 545 559" fill="none" xmlns="http://www.w3.org/2000/svg">
<path d="M361.557 163.537L326.974 198.114L275.501 249.596L239.756 285.341L194.606 330.496L158.845 366.243L151.093 373.994L159.297 382.182L464.36 77.1135H464.376L456.172 68.9228L423.873 101.224V11.9197C423.873 8.78019 422.602 5.71179 420.383 3.48997C418.164 1.27071 415.088 0 411.952 0H11.9223C8.78533 0 5.71007 1.26986 3.49253 3.48997C1.27071 5.71179 0 8.77934 0 11.9197V546.359C0 549.498 1.27071 552.566 3.49253 554.786C5.70921 557.005 8.78447 558.279 11.9223 558.279H339.082C342.219 558.279 345.261 557.026 347.48 554.817L384.237 518.302L384.284 518.253L420.394 481.986C422.601 479.759 423.871 476.713 423.871 473.575V198.596L400.017 222.447V449.732H324.189C321.052 449.732 317.982 451.008 315.759 453.227C313.543 455.444 312.269 458.512 312.269 461.654V534.435H23.842V23.8386H400.017V125.069L361.557 163.537ZM336.108 473.574H399.6L336.108 534.861V473.574Z" fill="#007A43"/>
<path d="M366.303 85.2844H77.1152V119.863H366.303V85.2844Z" fill="#82BFAB"/>
<path d="M44.417 198.113H326.974L361.558 163.538H44.417V198.113Z" fill="#82BFAB"/>
<path d="M45.5234 285.339H239.754L275.501 249.595H45.5234V285.339Z" fill="#82BFAB"/>
<path d="M378.334 285.339V249.595H372.881L337.123 285.339H378.334Z" fill="#82BFAB"/>
<path d="M378.334 366.243V330.495H291.973L256.228 366.243H378.334Z" fill="#82BFAB"/>
<path d="M45.5234 366.243H158.844L194.605 330.495H45.5234V366.243Z" fill="#82BFAB"/>
<path d="M112.277 447.143L113.438 444.791L129.846 411.405H45.5234V447.143H112.277Z" fill="#82BFAB"/>
<path d="M190.037 430.351L155.853 447.142H295.621V411.405H211.062L199.801 422.679L199.783 422.676V422.679L191.598 414.488L188.507 411.405H179.453L191.227 423.182C192.257 424.203 192.705 425.64 192.482 427.071C192.241 428.503 191.338 429.707 190.037 430.351Z" fill="#82BFAB"/>
<path d="M399.599 473.574H336.107V534.861L399.599 473.574Z" fill="white"/>
<path d="M361.557 163.537L400.017 125.07V23.8386H23.8418V534.436H312.269V461.655C312.269 458.512 313.542 455.445 315.759 453.228C317.982 451.009 321.051 449.733 324.189 449.733H400.017V222.447L423.871 198.596L504.862 117.605L355.348 267.114L372.881 249.594H378.334V285.339H337.122L199.784 422.676L199.802 422.678L211.063 411.405H295.621V447.142H155.852L128.99 460.337L110.186 469.573C108.465 470.416 106.406 470.074 105.058 468.722C103.704 467.359 103.367 465.305 104.203 463.586L112.277 447.142H45.5236V411.405H129.847L143.423 383.746C144.066 382.437 145.271 381.538 146.7 381.301C148.134 381.068 149.581 381.524 150.595 382.546L179.453 411.405H188.507L191.598 414.488L496.674 109.419L464.359 77.1126L159.296 382.18L151.092 373.992L158.844 366.242H45.5236V330.494H194.606L239.755 285.339H45.5236V249.595H275.501L326.974 198.113H44.4166V163.537H361.557V163.537ZM77.115 85.2844H366.302V119.863H77.115V85.2844ZM256.228 366.243L291.972 330.495H378.333V366.243H256.228ZM468.912 83.2365L490.547 104.866L185.466 409.943L163.831 388.308L468.912 83.2365Z" fill="white"/>
<path d="M337.123 285.339L355.348 267.114L337.123 285.339Z" fill="white"/>
<path d="M468.901 83.2292L163.826 388.304L185.459 409.937L490.534 104.862L468.901 83.2292Z" fill="#AAD4C8"/>
<path d="M199.783 422.678V422.676L504.863 117.604L496.674 109.419L191.598 414.488L199.783 422.678Z" fill="#007A43"/>
<path d="M150.593 382.546C149.58 381.525 148.132 381.068 146.699 381.301C145.27 381.538 144.065 382.437 143.421 383.746L129.845 411.405L113.438 444.79L128.989 460.337L155.852 447.142L190.036 430.351C191.338 429.707 192.241 428.503 192.481 427.071C192.704 425.639 192.256 424.203 191.226 423.181L179.452 411.405L150.593 382.546Z" fill="#82BFAB"/>
<path d="M104.204 463.586C103.368 465.306 103.706 467.359 105.059 468.723C106.407 470.075 108.466 470.416 110.187 469.574L128.991 460.338L113.439 444.791L112.278 447.143L104.204 463.586Z" fill="#007A43"/>
<path d="M485.849 39.2457L480.233 44.8615L470.743 54.3512L460.563 64.528L509.253 113.214L519.437 103.029L528.911 93.5497L534.541 87.9261C547.987 74.4795 547.972 52.6837 534.541 39.2448C521.092 25.7991 499.296 25.7939 485.849 39.2457Z" fill="#007A43"/>
</svg>
