<svg width="545" height="481" viewBox="0 0 545 481" fill="none" xmlns="http://www.w3.org/2000/svg">
<path d="M9.89089 470.469C16.1856 476.753 24.8894 480.361 33.7842 480.361H38.0128H56.0054H510.839C519.729 480.361 528.435 476.753 534.728 470.463C541.008 464.176 544.62 455.477 544.62 446.583V167.231H0V446.583C0 455.477 3.61244 464.176 9.89089 470.469ZM434.968 189.894H512.92V259.248H434.968V189.894ZM434.968 278.427H512.92V347.777H434.968V278.427ZM334.136 189.894H412.108V259.248H334.136V189.894ZM334.136 278.427H412.108V347.777H334.136V278.427ZM334.136 366.957H412.108V436.306H334.136V366.957ZM233.325 189.894H311.295V259.248H233.325V189.894ZM233.325 278.427H311.295V347.777H233.325V278.427ZM233.325 366.957H311.295V436.306H233.325V366.957ZM132.514 189.894H210.485V259.248H132.514V189.894ZM132.514 278.427H210.485V347.777H132.514V278.427ZM132.514 366.957H210.485V436.306H132.514V366.957ZM31.7025 278.427H109.665V347.777H31.7025V278.427ZM31.7025 366.957H109.665V436.306H31.7025V366.957Z" fill="#007A43"/>
<path d="M544.619 135.035H0V155.034H544.619V135.035Z" fill="#AAD4C8"/>
<path d="M56.0054 38.8986H38.0128H33.7842C24.8901 38.8986 16.1856 42.4992 9.89089 48.788C3.6117 55.0783 0 63.7754 0 72.6628V111.913H544.619V72.6628C544.619 63.7754 541.007 55.0783 534.719 48.788C528.435 42.4992 519.729 38.8986 510.839 38.8986H453.542V83.115C453.542 91.3633 446.851 98.055 438.596 98.055H407.104C398.848 98.055 392.172 91.3633 392.172 83.115V38.8986H152.467V83.115C152.467 91.3633 145.769 98.055 137.529 98.055H106.026C97.7676 98.055 91.0945 91.3633 91.0945 83.115V38.8986H56.0054Z" fill="#AAD4C8"/>
<path d="M544.619 111.913H0V135.035H544.619V111.913Z" fill="#82BFAB"/>
<path d="M106.025 83.115H137.529V38.8985V0H106.025V38.8985V83.115Z" fill="#007A43"/>
<path d="M407.104 83.115H438.596V38.8985V0H407.104V38.8985V83.115Z" fill="#007A43"/>
<path d="M210.486 189.894H132.515V259.248H210.486V189.894Z" fill="#82BFAB"/>
<path d="M311.295 189.894H233.325V259.248H311.295V189.894Z" fill="#82BFAB"/>
<path d="M412.108 189.894H334.136V259.248H412.108V189.894Z" fill="#82BFAB"/>
<path d="M512.92 189.894H434.968V259.248H512.92V189.894Z" fill="#82BFAB"/>
<path d="M109.664 278.427H31.7021V347.777H109.664V278.427Z" fill="#82BFAB"/>
<path d="M210.486 278.427H132.515V347.777H210.486V278.427Z" fill="#82BFAB"/>
<path d="M311.295 278.427H233.325V347.777H311.295V278.427Z" fill="#82BFAB"/>
<path d="M412.108 278.427H334.136V347.777H412.108V278.427Z" fill="#AAD4C8"/>
<path d="M512.92 278.427H434.968V347.777H512.92V278.427Z" fill="#82BFAB"/>
<path d="M109.664 366.957H31.7021V436.306H109.664V366.957Z" fill="#82BFAB"/>
<path d="M210.486 366.957H132.515V436.306H210.486V366.957Z" fill="#AAD4C8"/>
<path d="M311.295 366.957H233.325V436.306H311.295V366.957Z" fill="#82BFAB"/>
<path d="M412.108 366.957H334.136V436.306H412.108V366.957Z" fill="#82BFAB"/>
</svg>
