<svg width="545" height="370" viewBox="0 0 545 370" fill="none" xmlns="http://www.w3.org/2000/svg">
<path d="M495.387 64.6312H7.52148V148.446H495.387V64.6312Z" fill="#82BFAB"/>
<path d="M501.815 177.95L502.9 177.993V25.7718C502.9 11.5395 491.36 0 477.11 0H25.7942C11.5443 0 0 11.5395 0 25.7718V303.027C0 317.263 11.5435 328.811 25.7942 328.811H382.226C380.122 319.823 378.901 310.502 378.901 300.879C378.9 233.093 434.046 177.95 501.815 177.95ZM7.52137 131.084V47.2698H495.387V131.084H7.52137Z" fill="#007A43"/>
<path d="M343.467 269.384C343.467 324.844 388.585 369.972 444.032 369.972C499.497 369.972 544.62 324.844 544.62 269.384C544.62 213.91 499.497 168.795 444.032 168.795C388.585 168.795 343.467 213.909 343.467 269.384ZM522.456 269.384C522.456 312.097 487.834 346.729 445.12 346.729C402.407 346.729 367.779 312.098 367.779 269.384C367.779 226.675 402.406 192.048 445.12 192.048C487.834 192.048 522.456 226.675 522.456 269.384Z" fill="#007A43"/>
<path d="M441.859 328.825H450.705C453.38 328.825 455.539 326.663 455.539 323.996V315.768C462.623 314.711 468.791 312.491 474.03 309.062C482.285 303.6 486.526 296.102 486.713 286.498C486.845 280.512 485.177 275.428 481.729 271.255C476.126 264.581 467.392 260.406 455.539 258.741V242.081C457.62 243.061 459.648 244.373 461.571 246.054C462.769 247.042 464.14 247.544 465.711 247.552C466.978 247.556 468.727 246.668 468.727 246.668L468.76 246.652L478.681 240.431C480.025 239.579 480.722 238.481 480.763 237.152C480.763 236.083 480.334 235.152 479.442 234.35C473.26 227.312 465.279 222.943 455.539 221.248V211.868C455.539 209.198 453.38 207.029 450.705 207.029H441.859C439.198 207.029 437.03 209.198 437.03 211.868V221.001C432.452 221.64 428.305 222.801 424.616 224.484C412.707 229.903 406.871 238.03 407.072 248.791C407.158 254.094 408.766 258.782 411.837 262.857C417.021 269.802 425.422 274.146 437.03 275.938V296.744C432.01 294.972 427.271 291.674 422.798 286.831C421.828 285.56 420.511 284.923 418.88 284.923C417.992 284.923 416.233 285.693 416.233 285.693L416.215 285.702L407.19 290.996C405.65 291.893 404.89 293.083 404.926 294.543C404.94 295.492 405.29 296.344 405.974 297.112C408.329 300.389 411.482 303.538 415.426 306.537C421.808 311.45 429.011 314.512 437.029 315.783V323.997C437.029 326.664 439.198 328.825 441.859 328.825ZM455.539 278.167C460.313 279.679 462.737 282.454 462.696 286.554C462.677 290.362 460.915 293.314 457.475 295.408C456.868 295.794 456.212 296.12 455.539 296.423V278.167ZM431.198 248.844C431.166 245.862 432.883 243.549 436.346 241.895L437.029 241.63V256.399C433.157 254.92 431.216 252.4 431.198 248.844Z" fill="white"/>
<path d="M433.901 253.207C433.924 256.767 435.864 259.277 439.727 260.769V245.99L439.053 246.257C435.591 247.913 433.873 250.232 433.901 253.207Z" fill="#AAD4C8"/>
<path d="M452.469 291.956C453.143 291.651 453.803 291.328 454.405 290.936C457.857 288.845 459.598 285.893 459.639 282.084C459.667 277.985 457.243 275.203 452.469 273.696V291.956Z" fill="#AAD4C8"/>
<path d="M367.529 269.384C367.529 312.097 402.161 346.729 444.874 346.729C487.584 346.729 522.211 312.098 522.211 269.384C522.211 226.675 487.584 192.047 444.874 192.047C402.161 192.047 367.529 226.675 367.529 269.384ZM455.826 211.429V220.811C465.566 222.505 473.547 226.874 479.72 233.913C480.622 234.712 481.037 235.648 481.037 236.719C481.01 238.045 480.308 239.138 478.964 239.995L469.037 246.218L469.019 246.232C469.019 246.232 467.261 247.12 466.002 247.115C464.422 247.106 463.05 246.605 461.857 245.612C459.925 243.935 457.902 242.619 455.825 241.644V258.306C467.679 259.971 476.412 264.14 482.011 270.816C485.455 274.987 487.127 280.076 486.999 286.066C486.812 295.665 482.571 303.164 474.321 308.623C469.072 312.056 462.904 314.279 455.825 315.332V323.556C455.825 326.228 453.657 328.384 450.992 328.384H442.14C439.479 328.384 437.306 326.229 437.306 323.556V315.347C429.293 314.069 422.086 311.015 415.708 306.097C411.768 303.097 408.606 299.954 406.26 296.676C405.577 295.909 405.226 295.057 405.207 294.103C405.175 292.645 405.932 291.456 407.472 290.56L416.491 285.269L416.519 285.253C416.519 285.253 418.273 284.485 419.161 284.485C420.792 284.485 422.104 285.118 423.074 286.398C427.553 291.238 432.285 294.535 437.306 296.309V275.497C425.699 273.711 417.303 269.365 412.119 262.423C409.043 258.345 407.44 253.655 407.353 248.355C407.153 237.595 412.993 229.469 424.901 224.054C428.582 222.361 432.732 221.206 437.306 220.562V211.43C437.306 208.76 439.479 206.594 442.14 206.594H450.992C453.658 206.594 455.826 208.759 455.826 211.429Z" fill="#AAD4C8"/>
</svg>
