<svg width="545" height="522" viewBox="0 0 545 522" fill="none" xmlns="http://www.w3.org/2000/svg">
<path d="M544.62 260.622C544.62 288.322 509.935 310.203 501.82 335.198C493.408 361.104 508.316 399.137 492.623 420.699C476.774 442.477 435.89 439.975 414.111 455.825C392.548 471.518 382.382 511.26 356.477 519.672C331.482 527.787 300.011 501.875 272.31 501.875C244.61 501.875 213.138 527.787 188.143 519.672C162.238 511.26 152.072 471.518 130.509 455.825C108.731 439.975 67.8461 442.478 51.9965 420.7C36.3036 399.137 51.2116 361.104 42.8009 335.199C34.6852 310.204 0 288.323 0 260.623C0 232.922 34.6852 211.042 42.8009 186.047C51.2123 160.141 36.3043 122.108 51.9971 100.546C67.8468 78.7675 108.731 81.2699 130.509 65.4209C152.072 49.7281 162.238 9.98532 188.143 1.57385C213.138 -6.54185 244.61 19.3707 272.31 19.3707C300.011 19.3707 331.482 -6.54185 356.477 1.57385C382.383 9.98532 392.549 49.7281 414.112 65.4209C435.89 81.2706 476.775 78.7676 492.624 100.546C508.317 122.109 493.409 160.142 501.82 186.048C509.935 211.041 544.62 232.922 544.62 260.622Z" fill="#007A43"/>
<path d="M231.625 388.731L134.357 300.338L169.688 261.458L225.942 312.578L358.154 150.469L398.866 183.673L231.625 388.731Z" fill="white"/>
</svg>
