<svg width="26" height="23" viewBox="0 0 26 23" fill="none" xmlns="http://www.w3.org/2000/svg">
<path d="M1.5 11.5H7.24625C8.18354 11.5001 9.1088 11.7111 9.95353 12.1172C10.7983 12.5234 11.5408 13.1143 12.1263 13.8462L13.3737 15.4038C13.9592 16.1357 14.7017 16.7266 15.5465 17.1328C16.3912 17.5389 17.3165 17.7499 18.2537 17.75H24M24 17.75L20.25 14M24 17.75L20.25 21.5M24 5.25H17.6525C16.903 5.25024 16.1631 5.41899 15.4876 5.74376C14.8121 6.06853 14.2183 6.54101 13.75 7.12625L11.7513 9.625C11.2827 10.2102 10.6886 10.6825 10.0129 11.0071C9.33718 11.3316 8.59713 11.5001 7.8475 11.5H5.25M24 5.25L20.25 1.5M24 5.25L20.25 9" stroke="white" stroke-width="3" stroke-linecap="round" stroke-linejoin="round"/>
</svg>
