<svg width="32" height="32" viewBox="0 0 32 32" fill="none" xmlns="http://www.w3.org/2000/svg">
<path d="M16.2822 21.75C19.3198 21.75 21.7822 19.2876 21.7822 16.25C21.7822 13.2124 19.3198 10.75 16.2822 10.75C13.2447 10.75 10.7822 13.2124 10.7822 16.25C10.7822 19.2876 13.2447 21.75 16.2822 21.75Z" stroke="white" stroke-width="3" stroke-linecap="square"/>
<path d="M26.247 26.0511L25.6056 21.614L29.7822 19.949V12.5512L25.6071 10.8868L26.2485 6.44888L19.8195 2.75L16.2832 5.52267L12.747 2.75L6.31789 6.44888L6.95923 10.8861L2.78223 12.5512V19.949L6.9607 21.6148L6.31947 26.0511L12.7485 29.75L16.2832 26.9786L19.8179 29.75L26.247 26.0511Z" stroke="white" stroke-width="3" stroke-linecap="square"/>
</svg>
