<svg width="30" height="30" viewBox="0 0 30 30" fill="none" xmlns="http://www.w3.org/2000/svg">
<path d="M14.977 18.2788C18.7646 18.2692 21.9851 20.0082 23.1688 23.7518C20.7828 25.2064 17.9743 25.7666 14.977 25.7593C11.9797 25.7666 9.17117 25.2064 6.78516 23.7518C7.97028 20.0042 11.1853 18.2691 14.977 18.2788Z" stroke="white" stroke-width="3" stroke-linecap="square"/>
<path d="M8.24316 17.2162C5.58771 17.2094 3.32984 18.4287 2.49992 21.0533C3.40578 21.6055 4.39851 21.9739 5.45207 22.1947" stroke="white" stroke-width="3" stroke-linecap="square"/>
<path d="M21.7571 17.2162C24.4125 17.2094 26.6704 18.4287 27.5003 21.0533C26.5945 21.6055 25.6017 21.9739 24.5482 22.1947" stroke="white" stroke-width="3" stroke-linecap="square"/>
<circle cx="15" cy="9.36378" r="5.12305" stroke="white" stroke-width="3" stroke-linecap="square"/>
<path d="M20.604 7.56317C20.966 7.44084 21.3538 7.37451 21.7571 7.37451C23.7453 7.37451 25.3571 8.98628 25.3571 10.9745C25.3571 12.9627 23.7453 14.5745 21.7571 14.5745C20.7909 14.5745 19.9135 14.1938 19.2668 13.5742" stroke="white" stroke-width="3" stroke-linecap="square"/>
<path d="M9.06324 7.4683C8.79985 7.40695 8.52536 7.37451 8.24329 7.37451C6.25508 7.37451 4.64331 8.98628 4.64331 10.9745C4.64331 12.9627 6.25508 14.5745 8.24329 14.5745C9.10982 14.5745 9.90484 14.2683 10.5261 13.7583" stroke="white" stroke-width="3" stroke-linecap="square"/>
</svg>
