<svg width="273" height="273" viewBox="0 0 273 273" fill="none" xmlns="http://www.w3.org/2000/svg">
<path d="M130.587 7.50195C133.671 4.62513 138.454 4.62512 141.538 7.50195L153.27 18.4473C156.468 21.43 161.078 22.3474 165.173 20.8154L180.202 15.1924C184.152 13.7149 188.571 15.5453 190.319 19.3828L196.971 33.9853C198.783 37.9647 202.691 40.5759 207.061 40.7275L223.097 41.2842C227.311 41.4304 230.695 44.8136 230.841 49.0283L231.396 65.0644C231.548 69.4342 234.16 73.3418 238.139 75.1543L252.741 81.8057C256.579 83.5536 258.41 87.9731 256.933 91.9228L251.31 106.951C249.777 111.047 250.695 115.657 253.678 118.854L264.623 130.587C267.5 133.671 267.5 138.454 264.623 141.538L253.678 153.27C250.695 156.468 249.778 161.078 251.31 165.173L256.933 180.202C258.41 184.152 256.579 188.571 252.741 190.319L238.139 196.971C234.16 198.783 231.548 202.691 231.396 207.061L230.841 223.097C230.695 227.311 227.311 230.695 223.097 230.841L207.061 231.396C202.691 231.548 198.783 234.16 196.971 238.139L190.319 252.741C188.571 256.579 184.152 258.41 180.202 256.933L165.173 251.31C161.078 249.778 156.468 250.695 153.27 253.678L141.538 264.623C138.454 267.5 133.671 267.5 130.587 264.623L118.854 253.678C115.657 250.695 111.047 249.777 106.951 251.31L91.9228 256.933C87.9731 258.41 83.5536 256.579 81.8057 252.741L75.1543 238.139C73.3418 234.16 69.4342 231.548 65.0644 231.396L49.0283 230.841C44.8136 230.695 41.4304 227.311 41.2842 223.097L40.7275 207.061C40.5759 202.691 37.9647 198.783 33.9853 196.971L19.3828 190.319C15.5453 188.571 13.7149 184.152 15.1924 180.202L20.8154 165.173C22.3474 161.078 21.43 156.468 18.4473 153.27L7.50195 141.538C4.62513 138.454 4.62512 133.671 7.50195 130.587L18.4473 118.854C21.4301 115.657 22.3477 111.047 20.8154 106.951L15.1924 91.9228C13.7149 87.9732 15.5453 83.5537 19.3828 81.8057L33.9853 75.1543C37.9646 73.3419 40.5758 69.4344 40.7275 65.0644L41.2842 49.0283C41.4304 44.8136 44.8136 41.4304 49.0283 41.2842L65.0644 40.7275C69.4344 40.5758 73.3419 37.9646 75.1543 33.9853L81.8057 19.3828C83.5537 15.5453 87.9732 13.7149 91.9228 15.1924L106.951 20.8154C111.047 22.3477 115.657 21.4301 118.854 18.4473L130.587 7.50195Z" stroke="#E1B26A" stroke-opacity="0.7" stroke-width="3.5"/>
<path d="M41.5 119.608C42.0692 119.926 42.7237 120.056 43.3711 119.98C43.7756 120.492 44.3309 120.863 44.958 121.041C45.1361 121.668 45.5075 122.223 46.0186 122.628C45.9432 123.275 46.0733 123.931 46.3906 124.5C46.0735 125.069 45.9434 125.724 46.0186 126.371C45.5075 126.776 45.1363 127.331 44.958 127.958C44.3311 128.136 43.7756 128.507 43.3711 129.019C42.7239 128.943 42.0691 129.073 41.5 129.391C40.9306 129.073 40.2754 128.943 39.6279 129.019C39.2233 128.507 38.6681 128.136 38.041 127.958C37.8627 127.331 37.4918 126.776 36.9805 126.371C37.0556 125.724 36.9257 125.069 36.6084 124.5C36.9259 123.93 37.0559 123.276 36.9805 122.628C37.4918 122.223 37.8628 121.668 38.041 121.041C38.6683 120.863 39.2233 120.492 39.6279 119.98C40.2756 120.056 40.9305 119.926 41.5 119.608Z" stroke="#E1B26A" stroke-opacity="0.7" stroke-width="4"/>
<path d="M228.5 119.608C229.069 119.926 229.724 120.056 230.371 119.98C230.776 120.492 231.331 120.863 231.958 121.041C232.136 121.668 232.507 122.223 233.019 122.628C232.943 123.275 233.073 123.931 233.391 124.5C233.073 125.069 232.943 125.724 233.019 126.371C232.507 126.776 232.136 127.331 231.958 127.958C231.331 128.136 230.776 128.507 230.371 129.019C229.724 128.943 229.069 129.073 228.5 129.391C227.931 129.073 227.275 128.943 226.628 129.019C226.223 128.507 225.668 128.136 225.041 127.958C224.863 127.331 224.492 126.776 223.98 126.371C224.056 125.724 223.926 125.069 223.608 124.5C223.926 123.93 224.056 123.276 223.98 122.628C224.492 122.223 224.863 121.668 225.041 121.041C225.668 120.863 226.223 120.492 226.628 119.98C227.276 120.056 227.93 119.926 228.5 119.608Z" stroke="#E1B26A" stroke-opacity="0.7" stroke-width="4"/>
<circle cx="135.5" cy="135.5" r="108.75" stroke="#E1B26A" stroke-opacity="0.7" stroke-width="3.5"/>
<circle cx="135.5" cy="135.5" r="80.5" fill="white"/>
<circle cx="135.5" cy="135.5" r="78.75" stroke="#E1B26A" stroke-opacity="0.7" stroke-width="3.5"/>
<g clip-path="url(#clip0_27_183)">
<path d="M111.072 143.041V117.384C109.752 118.317 108.817 119.04 107.888 119.879C106.562 121.075 105.903 122.825 105.903 124.611V140.805C105.903 144.469 108.147 147.759 111.559 149.097L129.618 156.173C131.123 154.766 132.245 154.272 134.685 153.85C130.213 146.663 125.056 144.283 111.072 143.041Z" fill="#E1B26A" fill-opacity="0.7"/>
<path d="M159.968 143.041V117.384C161.287 118.317 162.222 119.04 163.152 119.879C164.478 121.075 165.136 122.825 165.136 124.611V140.805C165.136 144.469 162.892 147.759 159.48 149.097L141.421 156.173C139.917 154.766 138.795 154.272 136.354 153.85C140.826 146.663 145.983 144.283 159.968 143.041Z" fill="#E1B26A" fill-opacity="0.7"/>
<path d="M131.765 156.928C134.737 155.385 136.382 155.346 139.274 156.928C136.341 158.687 134.697 158.718 131.765 156.928Z" fill="#E1B26A" fill-opacity="0.7"/>
<path d="M134.685 127.407C129.306 118.947 124.37 116.926 112.994 116.967V141.737C123.444 142.261 128.105 144.27 134.685 150.334V127.407Z" fill="#E1B26A" fill-opacity="0.7"/>
<path d="M136.354 127.407C141.733 118.947 146.669 116.926 158.045 116.967V141.737C147.595 142.261 142.934 144.27 136.354 150.334V127.407Z" fill="#E1B26A" fill-opacity="0.7"/>
<path d="M122.243 169.171L105.08 176.003C102.558 175.886 101.836 175.255 101.731 173.162L103.558 172.452L117.206 167.166L122.243 169.171ZM169.308 146.987C168.994 149.245 167.492 151.16 165.374 152.003L153.986 156.536L149.32 154.728L169.308 146.987Z" fill="#E1B26A" fill-opacity="0.7"/>
<path d="M167.679 172.62L101.731 146.997C102.046 149.269 103.556 151.197 105.686 152.048L166.153 176.193L169.308 174.356L167.679 172.62Z" fill="#E1B26A" fill-opacity="0.7"/>
<path d="M125.925 162.078L114.618 157.746C114.101 157.548 113.516 157.655 113.104 158.023C111.3 159.631 110.389 160.475 108.469 161.781C107.96 162.089 107.494 162.363 107.055 162.615C103.932 164.405 101.771 167.59 101.833 171.188L125.925 162.078Z" fill="#E1B26A" fill-opacity="0.7"/>
<path d="M145.114 162.078L156.421 157.746C156.938 157.548 157.523 157.655 157.935 158.023C159.739 159.631 160.65 160.475 162.57 161.781C163.079 162.089 163.545 162.363 163.984 162.615C167.107 164.405 169.268 167.59 169.206 171.188L145.114 162.078Z" fill="#E1B26A" fill-opacity="0.7"/>
<path d="M94.8765 111.184C90.5178 114.836 88 120.231 88 125.918V173.262C88 175.135 89.519 176.654 91.3929 176.654H94.1072C95.981 176.654 97.5 175.135 97.5 173.262V123.609C97.5 121.196 98.6009 118.914 100.49 117.413L129.98 93.9711C133.225 91.3913 137.803 91.3434 141.089 93.8721C149.522 100.363 165.161 112.479 171.261 117.728C172.756 119.015 173.5 120.883 173.5 122.855V173.262C173.5 175.135 175.019 176.654 176.893 176.654H179.607C181.481 176.654 183 175.135 183 173.262V125.918C183 120.231 180.482 114.836 176.123 111.184L147.85 87.4903C140.705 81.5032 130.295 81.5032 123.15 87.4903L94.8765 111.184Z" fill="#E1B26A" fill-opacity="0.7"/>
</g>
<path d="M229.715 156.528L221.247 154.388L220.358 156.069L219.441 155.837L220.654 150.902L221.571 151.134L221.578 153.042L230.387 155.268C232.15 155.713 233.377 156.53 234.067 157.718C234.756 158.906 234.875 160.419 234.424 162.256C233.958 164.15 233.13 165.491 231.94 166.28C230.739 167.05 229.271 167.216 227.536 166.778L218.748 164.557L217.859 166.238L216.942 166.007L218.349 160.281L219.266 160.513L219.273 162.421L227.698 164.55C230.784 165.33 232.673 164.309 233.366 161.489C233.695 160.151 233.571 159.09 232.993 158.309C232.414 157.527 231.322 156.934 229.715 156.528Z" fill="#E1B26A" fill-opacity="0.7"/>
<path d="M222.535 184.332L212.765 173.535L215.314 169.062L216.125 169.548L215.607 171.391L226.781 178.081L228.093 176.713L228.904 177.199L226.105 182.111L225.293 181.625L225.692 179.992L214.536 173.314L224.656 184.653L223.371 186.908L208.741 183.482L219.897 190.161L221.089 189.003L221.9 189.489L219.482 193.732L218.67 193.246L219.189 191.403L208.014 184.713L206.703 186.082L205.891 185.596L208.484 181.047L222.492 184.408L222.535 184.332Z" fill="#E1B26A" fill-opacity="0.7"/>
<path d="M193.511 200.257L203.258 208.896L204.929 207.615L205.637 208.243L201.574 213.104L200.866 212.477L201.847 210.584L192.1 201.945L190.428 203.226L189.72 202.598L193.783 197.737L194.491 198.364L193.511 200.257Z" fill="#E1B26A" fill-opacity="0.7"/>
<path d="M188.87 216.43L182.587 208.807L180.654 209.884L180.052 209.154L184.657 205.129L185.259 205.859L184.244 207.36L190.372 214.796C191.016 215.577 191.415 216.406 191.568 217.284C191.724 218.141 191.644 218.99 191.329 219.83C191.005 220.658 190.451 221.415 189.667 222.1C188.982 222.699 188.268 223.099 187.523 223.302C186.769 223.494 186.047 223.482 185.357 223.268C184.678 223.043 184.082 222.62 183.569 221.997C183.187 221.533 182.986 221.105 182.967 220.713C182.95 220.3 183.123 219.934 183.487 219.616C183.808 219.336 184.136 219.204 184.473 219.221C184.81 219.238 185.1 219.394 185.343 219.688C185.557 219.949 185.705 220.277 185.785 220.674C185.856 221.06 185.835 221.38 185.722 221.635C186.02 221.997 186.46 222.139 187.04 222.06C187.632 221.971 188.232 221.661 188.839 221.13C189.623 220.445 190.011 219.717 190.002 218.945C189.993 218.174 189.616 217.336 188.87 216.43Z" fill="#E1B26A" fill-opacity="0.7"/>
<path d="M175.75 225.427L172.827 222.558L167.643 225.367L168.246 229.494L170.061 229.035L170.492 229.878L165.966 232.33L165.535 231.488L166.911 230.217L164.886 214.654L166.685 213.68L177.936 224.242L179.694 223.815L180.124 224.658L174.805 227.54L174.375 226.698L175.75 225.427ZM166.299 216.115L167.45 224.022L171.879 221.621L166.376 216.073L166.299 216.115Z" fill="#E1B26A" fill-opacity="0.7"/>
<path d="M151.075 233.587C152.308 233.403 153.188 232.96 153.714 232.259C154.253 231.541 154.441 230.578 154.277 229.372L154.07 227.846L152.18 227.661L152.047 226.68L157.878 225.809L158.011 226.79L156.246 227.521L157.113 233.909L155.982 234.077L155.204 232.437C154.675 233.227 154.09 233.826 153.45 234.233C152.822 234.623 152.051 234.887 151.137 235.023C149.15 235.32 147.479 234.947 146.123 233.904C145.363 233.32 144.724 232.534 144.204 231.544C143.7 230.551 143.361 229.423 143.19 228.159C143.014 226.865 143.04 225.638 143.267 224.477C143.507 223.3 143.925 222.295 144.523 221.465C145.033 220.751 145.659 220.183 146.4 219.761C147.155 219.322 148.033 219.028 149.033 218.878C149.904 218.748 150.67 218.775 151.331 218.958C151.99 219.126 152.63 219.476 153.249 220.006L153.524 218.43L154.72 218.252L155.375 223.069L154.047 223.268C153.671 222.019 153.062 221.131 152.22 220.604C151.392 220.061 150.354 219.882 149.106 220.069C148.381 220.177 147.781 220.393 147.307 220.715C146.845 221.022 146.468 221.456 146.174 222.019C145.851 222.69 145.629 223.509 145.509 224.476C145.403 225.441 145.421 226.446 145.564 227.493C145.71 228.568 145.968 229.545 146.339 230.424C146.724 231.301 147.193 232.024 147.744 232.594C148.19 233.047 148.676 233.352 149.2 233.511C149.725 233.67 150.35 233.695 151.075 233.587Z" fill="#E1B26A" fill-opacity="0.7"/>
<path d="M123.169 235.025L123.555 222.007L121.722 221.487L121.75 220.541L125.95 220.673L133.813 233.093L134.132 222.339L132.299 221.82L132.327 220.874L137.45 221.035L137.422 221.981L135.561 222.384L135.133 236.81L133.572 236.761L124.947 223.305L124.598 235.07L126.432 235.59L126.404 236.535L121.28 236.374L121.308 235.429L123.169 235.025Z" fill="#E1B26A" fill-opacity="0.7"/>
<path d="M89.4246 224.555L94.1258 212.409L92.583 211.276L92.9245 210.394L96.8118 211.99L100.032 226.46L103.915 216.427L102.372 215.294L102.714 214.412L107.456 216.359L107.114 217.241L105.238 216.97L100.029 230.429L98.5837 229.836L94.9961 214.121L90.7475 225.098L92.2903 226.23L91.9488 227.113L87.2068 225.166L87.5482 224.284L89.4246 224.555Z" fill="#E1B26A" fill-opacity="0.7"/>
<path d="M79.9547 219.156L81.0317 215.138L76.1895 211.774L72.9443 214.286L74.1911 215.715L73.6734 216.507L69.4455 213.569L69.9632 212.778L71.6976 213.42L84.0523 204.169L85.7326 205.337L81.9963 220.575L83.1889 221.966L82.6712 222.757L77.7026 219.306L78.2203 218.514L79.9547 219.156ZM83.4686 206.147L77.2492 210.958L81.3867 213.832L83.5409 206.197L83.4686 206.147Z" fill="#E1B26A" fill-opacity="0.7"/>
<path d="M61.0329 201.195L73.9017 194.823L77.3409 198.654L76.6551 199.305L75.0855 198.249L65.6435 207.219L66.5431 208.912L65.8573 209.564L62.08 205.357L62.7659 204.705L64.1737 205.582L73.5998 196.627L60.1253 203.18L58.391 201.248L65.7808 187.918L56.3547 196.873L57.0926 198.386L56.4068 199.038L53.144 195.404L53.8298 194.752L55.3993 195.809L64.8414 186.838L63.9417 185.145L64.6276 184.494L68.1256 188.39L60.9741 201.13L61.0329 201.195Z" fill="#E1B26A" fill-opacity="0.7"/>
<path d="M50.8144 182.937L50.3371 181.922L52.1805 180.569L50.627 177.264L45.1042 179.993L47.9305 186.006L51.4357 185.035L51.9785 186.189L47.58 188.362L42.1052 176.715L42.9533 176.296L44.2472 177.963L55.9239 172.194L55.4584 170.118L56.3066 169.699L61.5755 180.908L57.394 182.974L56.9073 181.939L59.6454 179.801L56.9781 174.127L51.8104 176.68L53.364 179.985L55.5443 179.349L56.0216 180.365L50.8144 182.937Z" fill="#E1B26A" fill-opacity="0.7"/>
<path d="M50.6239 152.858L54.9322 165.242L50.5809 166.794L50.205 165.714L53.0818 163.94L51.8963 160.532L39.6089 164.916L39.8779 167.296L38.9869 167.614L36.7315 161.131L37.6225 160.814L38.886 162.839L51.1734 158.455L49.9806 155.026L46.6484 155.491L46.2725 154.41L50.6239 152.858Z" fill="#E1B26A" fill-opacity="0.7"/>
<path d="M206.394 85.7089L208.87 81.9506L204.885 76.9019L200.624 78.3996L201.463 80.2754L200.653 80.9149L197.173 76.5066L197.984 75.8672L199.598 77.0997L215.714 71.7177L217.097 73.4697L208.074 87.8377L208.868 89.657L208.058 90.2964L203.969 85.1158L204.779 84.4764L206.394 85.7089ZM214.438 73.5497L206.275 76.4162L209.68 80.7303L214.498 73.6251L214.438 73.5497Z" fill="#E1B26A" fill-opacity="0.7"/>
<path d="M184.263 56.5021L191.918 52.2798L190.551 50.8082L191.107 49.9386L195.697 52.8726L195.142 53.7421L193.212 53.107L184.253 58.0335L181.435 62.4421L183.065 64.0817L182.509 64.9512L176.685 61.2289L177.241 60.3593L179.413 61.1496L182.024 57.0646L182.717 46.399L181.31 44.9016L181.865 44.032L187.447 47.5993L186.891 48.4688L184.921 47.8078L184.263 56.5021Z" fill="#E1B26A" fill-opacity="0.7"/>
<path d="M155.082 51.3396L154.402 46.8907L148.061 45.8127L145.901 49.7789L147.781 50.6096L147.608 51.627L142.071 50.6858L142.244 49.6684L144.269 49.5014L152.626 34.7088L154.827 35.0829L157.755 51.7941L159.564 52.6127L159.391 53.6301L152.884 52.524L153.057 51.5066L155.082 51.3396ZM152.907 36.9232L148.767 44.5208L154.185 45.4419L153.002 36.9393L152.907 36.9232Z" fill="#E1B26A" fill-opacity="0.7"/>
<path d="M119.228 43.6665C118.987 43.9405 118.693 44.192 118.346 44.4211C117.999 44.6501 117.56 44.8721 117.031 45.087C117.2 45.2015 117.383 45.3538 117.583 45.5438C117.797 45.7309 118.009 45.9431 118.217 46.1803L122.364 50.8872L124.547 50.9353L124.74 51.949L119.884 52.8746L119.691 51.8609L115.038 45.9067L112.161 46.4549L113.325 52.561L115.659 52.6292L115.852 53.643L109.275 54.8966L109.082 53.8829L110.967 53.0104L108.307 39.0536L106.233 38.9359L106.04 37.9222L114.15 36.3765C114.904 36.2327 115.578 36.1776 116.17 36.2112C116.763 36.2448 117.317 36.3754 117.833 36.6028C118.486 36.8692 119.033 37.3025 119.473 37.9027C119.929 38.4999 120.22 39.1286 120.346 39.7887C120.472 40.4488 120.431 41.1325 120.224 41.8398C120.029 42.5284 119.697 43.1373 119.228 43.6665ZM111.901 45.0875L115.272 44.445C116.136 44.2802 116.805 43.9003 117.278 43.3053C117.538 42.9624 117.71 42.5388 117.793 42.0343C117.889 41.5112 117.884 40.9745 117.78 40.4244C117.675 39.8743 117.486 39.3972 117.214 38.9931C116.954 38.5702 116.632 38.2488 116.248 38.0288C115.939 37.8597 115.595 37.7624 115.215 37.737C114.851 37.7086 114.418 37.7424 113.915 37.8382L110.638 38.4628L111.901 45.0875Z" fill="#E1B26A" fill-opacity="0.7"/>
<path d="M79.2225 52.1478L87.819 63.4601L89.9202 62.4963L90.5446 63.318L85.0413 67.5001L84.4169 66.6784L85.9082 64.9122L77.3117 53.5999L75.2105 54.5636L74.5861 53.742L80.0894 49.5599L80.7138 50.3815L79.2225 52.1478Z" fill="#E1B26A" fill-opacity="0.7"/>
<path d="M59.853 73.8617C61.1351 74.4038 62.2594 75.1137 63.2259 75.9915C64.1839 76.8482 64.8922 77.7818 65.3509 78.7922C65.7098 79.5867 65.8882 80.4178 65.8861 81.2855C65.8755 82.1322 65.7139 83.028 65.4012 83.9729L65.4896 84.0102L68.4672 81.96C69.0577 81.5496 69.4869 81.0275 69.7548 80.3938C69.8545 80.1581 69.9018 79.9435 69.8967 79.7503C69.9125 79.5485 69.8935 79.3059 69.8396 79.0226L70.586 78.9213C70.9392 79.4007 71.1118 79.9167 71.104 80.4693C71.1171 81.0133 70.9835 81.6169 70.7031 82.2801C70.3604 83.0906 69.915 83.7535 69.3671 84.2688C68.8254 84.7693 68.2028 85.0707 67.4995 85.1728L64.7061 85.5551C63.8132 87.2969 62.6108 88.4561 61.0988 89.0328C60.1048 89.4115 58.9994 89.5608 57.7826 89.4806C56.551 89.3941 55.3089 89.086 54.0563 88.5563C52.7742 88.0142 51.6542 87.3148 50.6962 86.458C49.7297 85.5803 49.0172 84.6362 48.5585 83.6258C48.157 82.7265 47.973 81.8061 48.0062 80.8647C48.0457 79.9086 48.3022 78.8706 48.7758 77.7506C49.2494 76.6306 49.8185 75.716 50.4832 75.0069C51.1394 74.2768 51.912 73.7436 52.8012 73.4074C53.8014 73.0139 54.9173 72.8603 56.1489 72.9468C57.3804 73.0333 58.6152 73.3383 59.853 73.8617ZM54.6449 85.8086C55.8975 86.3383 57.0538 86.7056 58.1136 86.9106C59.1588 87.1093 60.0497 87.1386 60.7864 86.9985C62.1823 86.7375 63.2323 85.7744 63.9365 84.1092C64.6094 82.5176 64.6123 81.1551 63.945 80.0218C63.1825 78.7439 61.5634 77.5815 59.0876 76.5346C56.5971 75.4815 54.5984 75.1141 53.0915 75.4323C51.6769 75.7375 50.6269 76.7006 49.9415 78.3216C49.2872 79.869 49.2874 81.2241 49.9422 82.3869C50.6458 83.6399 52.2134 84.7804 54.6449 85.8086Z" fill="#E1B26A" fill-opacity="0.7"/>
<defs>
<clipPath id="clip0_27_183">
<rect width="95" height="94" fill="white" transform="translate(88 83)"/>
</clipPath>
</defs>
</svg>
