<svg width="545" height="630" viewBox="0 0 545 630" fill="none" xmlns="http://www.w3.org/2000/svg">
<path d="M225.657 229.488H390.733C410.136 229.488 425.877 215.693 425.877 198.686V30.799C425.877 13.795 410.135 0 390.733 0H35.138C15.717 0 0 13.795 0 30.799V198.686C0 215.693 15.717 229.488 35.138 229.488H178.07L173.368 282.211L225.657 229.488ZM63.268 59.465H362.615V77.115H63.268V59.465ZM63.268 103.972H362.615V121.623H63.268V103.972ZM63.268 166.129V148.479H216.379V166.129H63.268Z" fill="#007A43"/>
<path d="M544.618 282.956V168.039C544.618 157.393 534.766 148.775 522.637 148.775H441.769V209.368C441.769 227.664 424.781 242.552 403.908 242.552H297.186V282.956C297.186 293.589 307.026 302.241 319.173 302.241H427.656L460.385 335.231L457.432 302.241H522.637C534.766 302.24 544.618 293.589 544.618 282.956Z" fill="#1EBF5A"/>
<path d="M49.772 390.945C49.772 443.91 92.736 486.84 145.697 486.84C198.677 486.84 241.616 443.91 241.616 390.945C241.616 337.938 198.676 295.014 145.697 295.014C92.735 295.014 49.772 337.938 49.772 390.945Z" fill="#007A43"/>
<path d="M90.181 495.891C40.373 495.891 0 536.279 0 586.067V629.83H291.376V586.067C291.376 536.28 251.02 495.891 201.212 495.891H90.181ZM181.422 614.351H168.102H123.28L134.398 541.318L123.262 614.351H109.966L89.274 505.723C91.32 505.58 93.335 505.429 95.393 505.429H195.978C198.048 505.429 200.063 505.58 202.109 505.723L181.422 614.351Z" fill="#007A43"/>
<path d="M156.984 541.318H156.996L168.102 614.351H181.422L202.108 505.723C200.062 505.58 198.047 505.429 195.977 505.429H95.392C93.335 505.429 91.319 505.58 89.273 505.723L109.965 614.351H123.261L134.397 541.318H134.784L123.866 521.271H167.513L156.609 541.318H156.984Z" fill="white"/>
<path d="M123.28 614.351H168.102L156.996 541.318H156.984H156.609L167.514 521.271H123.867L134.785 541.318H134.398L123.28 614.351Z" fill="#1EBF5A"/>
<path d="M362.615 59.465H63.268V77.115H362.615V59.465Z" fill="white"/>
<path d="M362.615 103.972H63.268V121.623H362.615V103.972Z" fill="white"/>
<path d="M216.379 148.479H63.268V166.129H216.379V148.479Z" fill="white"/>
<path d="M420.951 361.481C382.665 363.86 351.473 395.046 349.101 433.349C346.317 478.05 381.758 515.173 425.877 515.173C427.293 515.173 428.697 515.137 430.101 515.049H521.905C522.964 515.049 523.267 513.608 522.28 513.209C510.933 508.518 502.786 495.803 502.786 480.791V439.707H502.75L502.786 438.249C502.786 394.138 465.663 358.721 420.951 361.481Z" fill="#007A43"/>
<path d="M381.334 522.433C341.426 522.433 309.042 554.799 309.042 594.737V629.83H542.7V594.737C542.7 554.799 510.315 522.433 470.39 522.433H381.334ZM445.255 567.968L460.01 582.161L425.876 619.178L391.743 582.161L406.48 567.968C406.48 567.968 384.59 548.108 383.621 546.39C381.86 543.315 397.093 533.081 397.093 533.081L425.876 619.178L454.649 533.081C454.649 533.081 469.863 543.315 468.127 546.39C467.14 548.108 445.255 567.968 445.255 567.968Z" fill="#007A43"/>
<path d="M425.877 619.177L397.093 533.08C397.093 533.08 381.86 543.314 383.621 546.389C384.59 548.107 406.48 567.967 406.48 567.967L391.743 582.16L425.877 619.177Z" fill="white"/>
<path d="M468.127 546.389C469.863 543.314 454.649 533.08 454.649 533.08L425.877 619.177L460.011 582.16L445.256 567.967C445.256 567.967 467.14 548.108 468.127 546.389Z" fill="white"/>
</svg>
